<?xml version="1.0" encoding="utf-8"?>
<svg viewBox="0 0 419.07 419.07" width="100px" height="100px" xmlns="http://www.w3.org/2000/svg" xmlns:bx="https://boxy-svg.com">
  <g id="Layer_1-2" transform="matrix(1.945541381836, 0, 0, 1.945541381836, -0.778219938278, -0.77821969986)">
    <circle fill="#FEBD11" stroke="#231F20" stroke-width="0.75" cx="108.1" cy="108.1" r="107.7"/>
    <circle fill="none" stroke="#231F20" stroke-width="0.5" cx="108.1" cy="108.1" r="103.8"/>
    <circle fill="#FFFFFF" stroke="#231F20" cx="108.1" cy="108.1" r="101.2"/>
    <circle fill="#FEBD11" stroke="#231F20" cx="108.1" cy="108.1" r="81.3"/>
    <g enable-background="new    ">
      <path fill="#231F20" d="M65,181l1.2,0.7l-1.9,10.8c-0.1,0.5-0.1,0.9,0,1.2c0.1,0.2,0.3,0.4,0.5,0.6l0.2,0.1l-0.4,0.6l-3.8-2.2 l0.4-0.6c0.1,0.1,0.3,0.1,0.4,0.2c0.2,0.1,0.4,0.2,0.5,0.2c0.2,0,0.3-0.1,0.4-0.2c0.1-0.1,0.1-0.4,0.2-0.9l0.5-2.5l-3.8-2.2 l-2.2,1.8c-0.2,0.2-0.4,0.3-0.4,0.4c-0.1,0.1-0.1,0.2-0.1,0.3c0,0.1,0,0.2,0.1,0.3c0.1,0.1,0.2,0.2,0.4,0.3 c0.1,0.1,0.2,0.1,0.3,0.2l-0.4,0.6l-3.2-1.8l0.4-0.6c0.3,0.2,0.5,0.3,0.7,0.3c0.2,0,0.3,0,0.5-0.1c0.2-0.1,0.5-0.3,0.9-0.6 L65,181z M60.2,186.1l3.3,1.9l1-5.5L60.2,186.1z"/>
    </g>
    <g enable-background="new    ">
      <path fill="#231F20" d="M71.6,184.5l4.3,1.9l-0.3,0.7l-0.3-0.1c-0.3-0.1-0.6-0.2-0.7-0.2c-0.2,0-0.3,0.1-0.5,0.2 s-0.3,0.4-0.5,0.9l-3.2,7.3c-0.2,0.4-0.2,0.6-0.2,0.8c0,0.2,0.1,0.3,0.1,0.5c0.1,0.1,0.3,0.3,0.6,0.4l0.3,0.1l-0.3,0.7l-4.3-1.9 l0.3-0.7l0.4,0.2c0.3,0.1,0.6,0.2,0.7,0.2c0.2,0,0.3-0.1,0.4-0.2c0.1-0.1,0.3-0.4,0.4-0.8l3.3-7.4c0.2-0.4,0.3-0.7,0.3-0.9 c0-0.2,0-0.3-0.1-0.4c-0.1-0.1-0.3-0.3-0.6-0.4l-0.4-0.2L71.6,184.5z"/>
    </g>
    <g enable-background="new    ">
      <path fill="#231F20" d="M77.2,187.1l6,1.9c1.1,0.4,2,0.8,2.5,1.2c0.5,0.4,0.9,0.9,1,1.5c0.2,0.5,0.2,1.1,0,1.7 c-0.2,0.6-0.5,1.1-1,1.5c-0.5,0.4-1,0.6-1.7,0.7c-0.7,0.1-1.5,0-2.4-0.3l1.9,4.8c0.2,0.4,0.3,0.6,0.3,0.7 c0.1,0.2,0.3,0.4,0.5,0.6c0.2,0.2,0.4,0.3,0.7,0.4l0.2,0.1l-0.2,0.7l-2.7-0.8l-2.5-7l-1.5-0.5l-1.1,3.6c-0.1,0.4-0.2,0.7-0.2,0.8 c0,0.2,0.1,0.4,0.2,0.5c0.1,0.1,0.4,0.2,0.8,0.4l0.3,0.1l-0.2,0.7l-4.5-1.4l0.2-0.7l0.4,0.1c0.3,0.1,0.5,0.1,0.6,0.1 c0.1,0,0.2,0,0.3-0.1c0.1-0.1,0.2-0.2,0.3-0.3c0-0.1,0.1-0.3,0.3-0.8l2.4-7.7c0.1-0.3,0.2-0.6,0.1-0.8c0-0.2-0.1-0.3-0.2-0.4 c-0.1-0.1-0.3-0.2-0.6-0.3l-0.5-0.2L77.2,187.1z M79.9,189l-1.4,4.4l2.4,0.8c0.8,0.3,1.4,0.4,1.8,0.4c0.5,0,1-0.1,1.3-0.4 c0.4-0.3,0.7-0.7,0.8-1.2c0.1-0.5,0.2-0.9,0.1-1.3c-0.1-0.4-0.3-0.7-0.6-1s-0.8-0.5-1.4-0.7L79.9,189z"/>
    </g>
    <g enable-background="new    ">
      <path fill="#231F20" d="M95.1,191.8l9.4,0.8l0.8,3.3l-0.8,0.2c-0.3-0.8-0.5-1.4-0.8-1.7c-0.3-0.4-0.6-0.6-1-0.8s-1-0.3-1.9-0.4 l-2.7-0.2l-0.4,4.7l1.2,0.1c0.6,0.1,1.1,0,1.4-0.1c0.3-0.1,0.5-0.3,0.7-0.5c0.2-0.3,0.3-0.6,0.3-1.1l0-0.3l0.9,0.1l-0.5,5.4 l-0.9-0.1l0-0.5c0-0.5,0-0.8-0.1-1.1c-0.1-0.3-0.3-0.5-0.5-0.6c-0.2-0.1-0.7-0.2-1.3-0.3l-1.3-0.1l-0.3,3.8c0,0.4,0,0.6,0,0.7 c0.1,0.1,0.2,0.3,0.3,0.3c0.1,0.1,0.4,0.1,0.8,0.2l0.3,0l-0.1,0.7l-4.7-0.4l0.1-0.7l0.3,0c0.4,0,0.6,0,0.8,0 c0.1-0.1,0.3-0.2,0.3-0.3c0.1-0.1,0.1-0.4,0.2-0.8l0.8-8.4c0-0.4,0-0.6,0-0.8c-0.1-0.2-0.1-0.3-0.3-0.4c-0.1-0.1-0.4-0.1-0.7-0.2 l-0.4,0L95.1,191.8z"/>
    </g>
    <g enable-background="new    ">
      <path fill="#231F20" d="M113,192.4c1.1-0.1,2.2,0.2,3.1,0.7c1,0.5,1.8,1.3,2.4,2.2s0.9,2,1,3.2c0.1,1.9-0.4,3.5-1.5,4.7 c-1.1,1.3-2.6,1.9-4.4,2c-2,0.1-3.7-0.5-5-1.9c-1-1.1-1.6-2.5-1.7-4.1c-0.1-1.2,0.2-2.3,0.7-3.3c0.5-1,1.2-1.8,2.2-2.4 C110.7,192.8,111.8,192.4,113,192.4z M113.1,193.3c-0.9,0-1.7,0.3-2.3,0.8c-0.6,0.5-1.1,1.1-1.5,1.9c-0.4,0.8-0.5,1.9-0.4,3.1 c0.1,1.1,0.3,2.1,0.7,2.9c0.4,0.8,1,1.4,1.7,1.8c0.7,0.4,1.4,0.6,2.3,0.5c0.8,0,1.5-0.3,2.1-0.7c0.6-0.4,1.1-1.1,1.5-2 c0.4-0.9,0.5-1.9,0.5-3c-0.1-1.1-0.3-2.1-0.8-3c-0.4-0.8-0.9-1.3-1.5-1.7C114.7,193.4,113.9,193.3,113.1,193.3z"/>
    </g>
    <g enable-background="new    ">
      <path fill="#231F20" d="M120.7,192l6.2-1.4c1.2-0.3,2.1-0.3,2.8-0.2c0.7,0.1,1.2,0.4,1.6,0.8c0.4,0.4,0.7,0.9,0.8,1.5 c0.1,0.6,0.1,1.2-0.1,1.8c-0.2,0.6-0.6,1-1.1,1.4c-0.5,0.4-1.3,0.7-2.3,1l4,3.2c0.3,0.3,0.5,0.4,0.6,0.5c0.2,0.1,0.5,0.2,0.7,0.3 c0.2,0,0.5,0,0.8,0l0.2,0l0.2,0.7l-2.7,0.6l-5.7-4.8l-1.5,0.3l0.8,3.7c0.1,0.4,0.2,0.7,0.2,0.8c0.1,0.2,0.2,0.3,0.4,0.3 c0.2,0,0.4,0,0.9-0.1l0.3-0.1l0.2,0.7l-4.6,1l-0.2-0.7l0.4-0.1c0.3-0.1,0.5-0.1,0.6-0.2c0.1-0.1,0.2-0.2,0.2-0.3 c0.1-0.1,0.1-0.3,0.1-0.4c0-0.1-0.1-0.4-0.2-0.9l-1.7-7.9c-0.1-0.3-0.2-0.6-0.3-0.7c-0.1-0.1-0.2-0.2-0.4-0.3c-0.1,0-0.4,0-0.7,0 l-0.5,0.1L120.7,192z M124,192.2l1,4.5l2.5-0.5c0.8-0.2,1.4-0.4,1.7-0.5c0.5-0.2,0.8-0.6,1-1c0.2-0.4,0.2-0.9,0.1-1.5 c-0.1-0.5-0.3-0.9-0.6-1.2c-0.3-0.3-0.6-0.5-1-0.6c-0.4-0.1-0.9-0.1-1.6,0.1L124,192.2z"/>
    </g>
    <g enable-background="new    ">
      <path fill="#231F20" d="M142.4,185.6l0.6-0.2l2.5,3.4l-0.7,0.5c-0.8-0.7-1.3-1.2-1.6-1.4c-0.5-0.4-1.1-0.6-1.8-0.7 c-0.6-0.1-1.3,0-1.9,0.2c-0.7,0.3-1.3,0.8-1.8,1.4s-0.7,1.4-0.8,2.3c-0.1,0.9,0.1,1.9,0.4,2.8c0.4,1,0.9,1.8,1.6,2.4 c0.7,0.6,1.5,1,2.3,1.2c0.8,0.2,1.6,0.1,2.4-0.2c0.7-0.3,1.4-0.8,2-1.5c0.6-0.7,1-1.6,1.3-2.5l0.8,0.2c-0.1,0.6-0.3,1.2-0.6,1.7 c-0.4,0.8-0.9,1.5-1.5,2c-0.6,0.5-1.3,1-2.1,1.3c-1.8,0.7-3.5,0.6-5.1-0.3c-1.3-0.7-2.3-1.9-2.9-3.4c-0.4-1.1-0.6-2.2-0.4-3.3 c0.2-1.1,0.6-2.1,1.3-3c0.7-0.9,1.6-1.5,2.6-1.9c0.6-0.2,1.1-0.3,1.6-0.4s1.1,0,1.7,0.2L142.4,185.6z"/>
    </g>
    <g enable-background="new    ">
      <path fill="#231F20" d="M145.5,184.2l8.7-5l2.6,2.2l-0.5,0.6c-0.4-0.4-0.8-0.6-1.2-0.8c-0.4-0.1-0.7-0.2-1.1-0.3 c-0.4,0-0.7,0-1.1,0.1c-0.3,0.1-0.9,0.4-1.6,0.8l-2.6,1.5l2.3,3.9l1.3-0.7c0.5-0.3,0.8-0.6,0.9-0.9c0.2-0.3,0.2-0.6,0.2-0.9 c0-0.2-0.2-0.6-0.4-1l-0.1-0.2l0.8-0.4l2.7,4.7l-0.8,0.4l-0.2-0.4c-0.2-0.4-0.4-0.6-0.5-0.7c-0.1-0.1-0.3-0.2-0.6-0.3 c-0.2-0.1-0.4-0.1-0.6,0c-0.2,0-0.5,0.2-0.9,0.4l-1.3,0.7l2,3.5c0.2,0.4,0.4,0.6,0.4,0.6c0.1,0.1,0.2,0.1,0.3,0.1 c0.1,0,0.3-0.1,0.7-0.3l1.6-0.9c0.9-0.5,1.5-1,1.9-1.5c0.4-0.5,0.6-1.1,0.8-1.8c0.1-0.5,0.1-1.2,0-2l0.8-0.2l0.7,4l-9,5.2 l-0.4-0.6l0.3-0.2c0.4-0.2,0.6-0.4,0.6-0.5c0.1-0.1,0.1-0.3,0.1-0.5c0-0.1-0.1-0.4-0.3-0.7l-4.2-7.4c-0.2-0.3-0.4-0.5-0.5-0.6 c-0.1-0.1-0.3-0.1-0.5-0.1c-0.1,0-0.4,0.2-0.9,0.5L145.5,184.2z"/>
    </g>
    <g enable-background="new    ">
      <path fill="#231F20" d="M33.9,44.8l3.4-3.5l0.5,0.5L37.7,42c-0.3,0.3-0.5,0.5-0.5,0.7c0,0.1,0,0.3,0,0.4c0.1,0.2,0.2,0.4,0.6,0.7 l4.1,4c0.7,0.7,1.4,1.2,1.9,1.3c0.5,0.2,1.1,0.2,1.8,0c0.6-0.2,1.2-0.5,1.7-1c0.5-0.5,0.8-1.1,1-1.8c0.2-0.7,0.2-1.3,0-1.8 c-0.2-0.5-0.6-1.2-1.4-1.9l-4-3.9c-0.3-0.3-0.5-0.5-0.7-0.5c-0.2-0.1-0.4-0.1-0.5,0c-0.2,0.1-0.4,0.2-0.6,0.4l-0.2,0.3l-0.5-0.5 l3-3.1l0.5,0.5l-0.2,0.2C43.1,36.4,43,36.7,43,37c0,0.3,0.2,0.6,0.6,0.9l4.2,4.1c0.8,0.8,1.3,1.5,1.5,2.3c0.2,0.8,0.2,1.6,0,2.4 c-0.2,0.8-0.7,1.6-1.4,2.4c-0.7,0.7-1.4,1.2-2.3,1.4c-0.9,0.3-1.7,0.3-2.4,0.1c-0.7-0.2-1.4-0.6-2.1-1.3l-4.5-4.4 c-0.3-0.3-0.5-0.5-0.7-0.5c-0.2-0.1-0.3-0.1-0.5,0c-0.2,0-0.3,0.2-0.6,0.4l-0.3,0.3L33.9,44.8z"/>
    </g>
    <g enable-background="new    ">
      <path fill="#231F20" d="M45.5,33.3l3.1-2.3L59,35.3l-4.3-5.9c-0.3-0.4-0.5-0.6-0.7-0.7c-0.2-0.1-0.4-0.1-0.6-0.1 s-0.4,0.1-0.7,0.3l-0.3,0.2L52,28.5l3.4-2.5l0.5,0.6l-0.2,0.1c-0.3,0.2-0.5,0.4-0.6,0.5c-0.1,0.2-0.1,0.4-0.1,0.6 c0.1,0.2,0.2,0.5,0.5,0.9l6.2,8.4l-0.9,0.7l-12.5-5.1l5.4,7.3c0.3,0.4,0.5,0.6,0.6,0.7c0.1,0.1,0.3,0.1,0.4,0.2 c0.2,0,0.3,0,0.5,0c0.1-0.1,0.4-0.2,0.8-0.5l0.5,0.6L53,43.6L52.6,43l0.2-0.1c0.4-0.3,0.6-0.5,0.6-0.6c0.1-0.2,0.1-0.4,0-0.6 c-0.1-0.2-0.2-0.5-0.5-0.9l-4.8-6.5c-0.3-0.4-0.5-0.7-0.6-0.7c-0.2-0.1-0.3-0.2-0.5-0.2c-0.2,0-0.5,0.2-0.8,0.4L45.9,34 L45.5,33.3z"/>
    </g>
    <g enable-background="new    ">
      <path fill="#231F20" d="M57.6,24.8l4.2-2.4l0.4,0.7l-0.3,0.2c-0.3,0.2-0.5,0.3-0.6,0.5c-0.1,0.2-0.1,0.3-0.1,0.5 c0,0.2,0.2,0.5,0.4,1l4.1,7.2c0.2,0.4,0.4,0.6,0.5,0.7c0.2,0.1,0.3,0.2,0.5,0.2c0.2,0,0.4-0.1,0.7-0.3l0.3-0.2l0.4,0.7L64,35.9 l-0.4-0.7L64,35c0.3-0.2,0.5-0.3,0.6-0.5c0.1-0.1,0.1-0.3,0.1-0.5c0-0.2-0.1-0.4-0.4-0.8l-4.2-7.3c-0.2-0.4-0.4-0.7-0.6-0.8 s-0.3-0.2-0.5-0.1c-0.2,0-0.4,0.1-0.7,0.3L58,25.4L57.6,24.8z"/>
    </g>
    <g enable-background="new    ">
      <path fill="#231F20" d="M64.2,20.6l0.6-0.3l0.3,0.4l7.1-3.2L72,17.1l0.6-0.3l2.8,2.9l-0.6,0.6c-0.8-0.7-1.5-1.2-2.1-1.3 c-0.7-0.1-1.4,0-2.1,0.3c-0.3,0.1-0.5,0.2-0.6,0.3c0,0.1-0.1,0.1-0.1,0.2c0,0.1,0.1,0.3,0.2,0.6l3.6,8.1c0.2,0.4,0.3,0.6,0.4,0.7 c0.1,0.1,0.2,0.2,0.3,0.2c0.1,0,0.2,0,0.4,0c0.1,0,0.5-0.1,0.9-0.4l0.3,0.7l-4.5,2L71.3,31c0.5-0.2,0.8-0.4,0.9-0.5 c0.2-0.1,0.3-0.3,0.3-0.5c0-0.2-0.1-0.5-0.3-0.9l-3.7-8.2c-0.1-0.3-0.2-0.4-0.2-0.4c0,0-0.1-0.1-0.2-0.1c-0.1,0-0.2,0.1-0.4,0.1 c-0.6,0.3-1.1,0.6-1.3,0.9s-0.5,0.7-0.7,1.3c-0.2,0.5-0.2,1.1-0.2,1.8l-0.9,0.1L64.2,20.6z"/>
    </g>
    <g enable-background="new    ">
      <path fill="#231F20" d="M76.1,16l10-2.8l2.1,2.9l-0.7,0.5c-0.3-0.5-0.7-0.8-1-1.1c-0.3-0.2-0.7-0.4-1-0.5 c-0.4-0.1-0.7-0.2-1.1-0.2c-0.3,0-0.9,0.2-1.8,0.4l-3,0.8l1.3,4.5l1.5-0.4c0.5-0.2,0.9-0.4,1.2-0.6c0.2-0.3,0.4-0.5,0.4-0.9 c0-0.2,0-0.6-0.2-1.1l-0.1-0.2l0.9-0.2l1.5,5.4l-0.9,0.2L85,22.3c-0.1-0.4-0.2-0.7-0.3-0.9c-0.1-0.2-0.3-0.3-0.5-0.4 c-0.2-0.1-0.4-0.2-0.6-0.2c-0.2,0-0.5,0.1-1,0.2l-1.5,0.4l1.1,4c0.1,0.4,0.2,0.7,0.3,0.7c0.1,0.1,0.1,0.1,0.2,0.1 c0.1,0,0.3,0,0.7-0.1l1.8-0.5c1-0.3,1.8-0.6,2.3-1c0.5-0.4,0.9-0.9,1.2-1.6c0.2-0.5,0.4-1.1,0.5-2l0.9,0.1l-0.3,4.2l-10.4,2.9 l-0.2-0.7l0.4-0.1c0.4-0.1,0.7-0.2,0.7-0.3c0.1-0.1,0.2-0.3,0.2-0.5c0-0.1,0-0.4-0.1-0.8l-2.4-8.5c-0.1-0.4-0.2-0.6-0.3-0.7 c-0.1-0.1-0.3-0.2-0.5-0.2c-0.1,0-0.5,0.1-1.1,0.2L76.1,16z"/>
    </g>
    <g enable-background="new    ">
      <path fill="#231F20" d="M90.8,12.9l-0.1-0.8l4.5-0.5c2.1-0.2,3.5-0.3,4.4-0.1c1.2,0.2,2.3,0.9,3.2,1.8c1,1.1,1.5,2.3,1.7,3.8 c0.1,1,0,2-0.3,2.9c-0.3,0.9-0.8,1.7-1.4,2.3c-0.5,0.5-1.1,0.9-1.9,1.2c-0.8,0.3-1.5,0.5-2.3,0.5l-6.5,0.7L92,24l0.5-0.1l0.2,0 c0.2,0,0.4-0.1,0.5-0.2c0.1-0.1,0.2-0.2,0.3-0.4c0-0.1,0-0.4,0-0.8l-0.9-8.5c-0.1-0.5-0.1-0.8-0.2-0.9c-0.1-0.2-0.3-0.3-0.5-0.3 C91.8,12.8,91.4,12.8,90.8,12.9z M95.3,23.4l2.7-0.3c0.3,0,0.7-0.1,1.3-0.3s1.1-0.3,1.3-0.5c0.4-0.3,0.7-0.6,1.1-1.1 s0.6-1.1,0.7-1.7c0.1-0.7,0.2-1.4,0.1-2.2c-0.1-0.8-0.3-1.5-0.5-2.1c-0.3-0.6-0.6-1.1-1.1-1.5c-0.5-0.4-1-0.7-1.5-0.9 c-0.5-0.2-1.1-0.3-1.7-0.3c-0.3,0-0.9,0.1-1.7,0.1l-1.9,0.2L95.3,23.4z"/>
    </g>
    <g enable-background="new    ">
      <path fill="#231F20" d="M122.2,11.7l0.7,0.1l0.5,4l-0.9,0.2c-0.4-1.2-1-2.1-1.8-2.8c-0.7-0.6-1.4-1-2.3-1.1c-0.5-0.1-1,0-1.5,0.1 c-0.4,0.1-0.8,0.4-1,0.6c-0.2,0.3-0.4,0.6-0.4,0.9c0,0.3,0,0.6,0.2,0.9c0.1,0.3,0.4,0.5,0.7,0.8s0.8,0.5,1.6,0.8l2.3,1 c0.3,0.1,0.7,0.3,1.2,0.6c0.5,0.3,0.9,0.6,1.2,0.9c0.3,0.3,0.5,0.7,0.6,1.1c0.1,0.4,0.2,0.8,0.1,1.3c-0.1,1-0.7,1.8-1.6,2.5 c-1,0.7-2.1,0.9-3.5,0.8c-0.7-0.1-1.4-0.3-1.9-0.5c-0.5-0.3-1.1-0.7-1.7-1.3l-0.6,1.2l-0.6-0.1l-0.3-4.6l0.9-0.1 c0.2,0.9,0.5,1.6,1,2.3c0.4,0.6,1,1.2,1.6,1.5c0.6,0.4,1.2,0.6,1.8,0.7c0.9,0.1,1.7-0.1,2.4-0.5c0.6-0.4,0.9-0.9,1-1.5 c0.1-0.6-0.1-1-0.4-1.4c-0.4-0.4-1-0.8-2-1.2l-2.2-0.9c-1.2-0.5-2.1-1.1-2.5-1.7s-0.6-1.3-0.6-2.1c0.1-0.6,0.3-1.1,0.7-1.6 c0.4-0.5,1-0.8,1.7-1.1c0.7-0.3,1.5-0.3,2.4-0.2c0.7,0.1,1.4,0.3,2,0.6c0.4,0.2,0.8,0.5,1.2,0.9L122.2,11.7z"/>
    </g>
    <g enable-background="new    ">
      <path fill="#231F20" d="M127.7,12.2l0.6,0.2l0,0.4l7.6,1.9l0.2-0.4l0.6,0.2l0.4,4l-0.9,0.1c-0.1-1.1-0.4-1.9-0.8-2.4 c-0.4-0.5-1-0.9-1.9-1.1c-0.3-0.1-0.6-0.1-0.6-0.1c-0.1,0-0.1,0-0.2,0.1c0,0.1-0.1,0.3-0.2,0.6l-2.2,8.6 c-0.1,0.4-0.2,0.7-0.1,0.8c0,0.2,0,0.3,0.1,0.4c0.1,0.1,0.2,0.2,0.3,0.3c0.1,0.1,0.5,0.2,1,0.3l-0.2,0.7l-4.8-1.2l0.2-0.7 c0.5,0.1,0.9,0.2,1,0.2c0.2,0,0.4-0.1,0.5-0.2c0.1-0.1,0.3-0.4,0.4-0.9l2.2-8.8c0.1-0.3,0.1-0.4,0.1-0.5c0-0.1-0.1-0.1-0.1-0.2 c-0.1-0.1-0.2-0.1-0.4-0.2c-0.6-0.2-1.2-0.2-1.6-0.1c-0.4,0.1-0.9,0.3-1.3,0.6s-0.9,0.7-1.3,1.3l-0.7-0.5L127.7,12.2z"/>
    </g>
    <g enable-background="new    ">
      <path fill="#231F20" d="M144.2,17.7l1.4,0.6l-0.4,11.4c0,0.6,0,1,0.1,1.2c0.1,0.2,0.3,0.4,0.6,0.5l0.2,0.1l-0.3,0.7l-4.2-1.7 l0.3-0.7c0.1,0,0.3,0.1,0.4,0.1c0.3,0.1,0.5,0.2,0.6,0.1c0.2,0,0.3-0.1,0.4-0.3c0-0.1,0.1-0.4,0.1-1l0.2-2.6l-4.3-1.7l-2,2.2 c-0.2,0.2-0.3,0.4-0.4,0.5c0,0.1-0.1,0.2,0,0.3s0.1,0.2,0.2,0.3c0.1,0.1,0.2,0.2,0.5,0.3c0.2,0.1,0.3,0.1,0.4,0.2l-0.3,0.7 l-3.5-1.4l0.3-0.7c0.3,0.1,0.6,0.2,0.7,0.2c0.2,0,0.3-0.1,0.5-0.2c0.2-0.1,0.4-0.3,0.8-0.7L144.2,17.7z M140,23.7l3.6,1.5 l0.3-5.8L140,23.7z"/>
    </g>
    <g enable-background="new    ">
      <path fill="#231F20" d="M153.1,21.2l0.5,0.3l-0.1,0.4l6.7,3.9l0.3-0.3l0.6,0.3l-0.7,3.9l-0.9-0.2c0.2-1.1,0.1-1.9-0.2-2.5 c-0.3-0.6-0.8-1.1-1.5-1.6c-0.3-0.2-0.5-0.3-0.6-0.3c-0.1,0-0.1,0-0.2,0.1c-0.1,0-0.2,0.2-0.4,0.5l-4.4,7.6 c-0.2,0.4-0.3,0.6-0.4,0.8c0,0.1,0,0.3,0,0.4c0,0.1,0.1,0.2,0.2,0.3c0.1,0.1,0.4,0.3,0.8,0.6l-0.4,0.7l-4.2-2.5l0.4-0.7 c0.5,0.3,0.8,0.4,0.9,0.5c0.2,0.1,0.4,0,0.6-0.1c0.2-0.1,0.4-0.4,0.6-0.7l4.5-7.8c0.1-0.2,0.2-0.4,0.2-0.5c0-0.1,0-0.1-0.1-0.2 c0-0.1-0.2-0.2-0.4-0.3c-0.6-0.3-1.1-0.5-1.5-0.6c-0.4-0.1-0.9,0-1.4,0.2s-1,0.5-1.6,0.9l-0.6-0.7L153.1,21.2z"/>
    </g>
    <g enable-background="new    ">
      <path fill="#231F20" d="M163.9,28.2l8.1,6.4l-1.1,3.4l-0.8-0.3c0.2-0.6,0.3-1,0.3-1.4c0-0.4,0-0.8-0.2-1.2s-0.3-0.7-0.5-1 c-0.2-0.3-0.7-0.7-1.4-1.2l-2.4-1.9l-2.9,3.6l1.2,1c0.4,0.4,0.8,0.5,1.2,0.6c0.3,0,0.7,0,0.9-0.2c0.2-0.1,0.5-0.4,0.8-0.8 l0.1-0.2l0.7,0.6l-3.5,4.4l-0.7-0.6L164,39c0.3-0.3,0.4-0.6,0.5-0.8c0.1-0.2,0.1-0.4,0.1-0.6c0-0.2-0.1-0.4-0.2-0.6 c-0.1-0.2-0.4-0.4-0.7-0.7l-1.2-1l-2.6,3.2c-0.3,0.3-0.4,0.6-0.4,0.7c0,0.1,0,0.2,0,0.3c0,0.1,0.2,0.3,0.5,0.5l1.5,1.2 c0.8,0.7,1.6,1.1,2.2,1.3c0.6,0.2,1.3,0.2,2,0.1c0.5-0.1,1.2-0.3,1.9-0.7l0.5,0.7l-3.6,2.2l-8.4-6.7l0.5-0.6l0.3,0.2 c0.3,0.3,0.6,0.4,0.7,0.4c0.2,0,0.3,0,0.5-0.1c0.1-0.1,0.3-0.2,0.6-0.6l5.4-6.9c0.2-0.3,0.4-0.5,0.4-0.7c0-0.2,0-0.3-0.1-0.5 c-0.1-0.1-0.3-0.3-0.8-0.7L163.9,28.2z"/>
    </g>
    <g enable-background="new    ">
      <path fill="#231F20" d="M181.3,43.8l0.5,0.5l-2.2,3.4l-0.8-0.4c0.4-1.1,0.6-2.3,0.4-3.3c-0.1-0.9-0.5-1.7-1.1-2.3 c-0.4-0.4-0.8-0.7-1.2-0.9c-0.4-0.2-0.8-0.2-1.2-0.2c-0.4,0.1-0.7,0.2-0.9,0.4c-0.2,0.2-0.4,0.4-0.4,0.8c-0.1,0.3-0.1,0.6,0,1 c0.1,0.4,0.3,0.9,0.7,1.6l1.1,2.2c0.1,0.3,0.3,0.7,0.5,1.3c0.2,0.6,0.3,1.1,0.3,1.5c0,0.4-0.1,0.8-0.2,1.2 c-0.2,0.4-0.4,0.8-0.7,1.1c-0.7,0.7-1.7,1-2.8,0.9c-1.2-0.1-2.2-0.7-3.2-1.7c-0.5-0.5-0.9-1.1-1.1-1.6c-0.2-0.6-0.4-1.3-0.5-2.1 l-1.2,0.5l-0.4-0.5l2.8-3.8l0.7,0.5c-0.4,0.8-0.6,1.6-0.7,2.4c-0.1,0.8,0,1.5,0.2,2.2c0.2,0.7,0.5,1.2,1,1.7 c0.6,0.6,1.3,1,2.2,1.1c0.7,0.1,1.3-0.1,1.7-0.5c0.4-0.4,0.6-0.8,0.6-1.4c0-0.5-0.3-1.3-0.8-2.2l-1.1-2.1 c-0.6-1.2-0.9-2.2-0.8-2.9c0.1-0.8,0.4-1.4,0.9-1.9c0.4-0.4,0.9-0.6,1.5-0.7c0.6-0.1,1.3,0,2,0.3c0.7,0.3,1.4,0.7,2,1.3 c0.5,0.5,0.9,1.1,1.1,1.7c0.2,0.5,0.3,0.9,0.3,1.4L181.3,43.8z"/>
    </g>
    <circle fill="#004B85" stroke="#231F20" stroke-width="0.5" cx="108.1" cy="108.1" r="78.8"/>
    <g id="Stars">
      <path d="M 106.674 36 L 102.063 36 L 102.062 36.001 L 102.063 36.003 L 105.793 38.713 L 104.367 43.097 L 104.369 43.099 L 104.37 43.099 L 108.1 40.389 L 111.83 43.099 L 111.832 43.099 L 111.832 43.097 L 110.407 38.713 L 114.137 36.003 L 114.138 36.001 L 114.137 36 L 109.526 36 L 108.101 31.615 L 108.1 31.614 L 108.099 31.615 L 106.674 36 Z M 111.833 43.097 L 111.833 43.099 L 111.833 43.097 Z M 104.37 43.099 L 104.369 43.1 L 104.37 43.099 Z" style="stroke-width: 2px; vector-effect: non-scaling-stroke; fill: rgb(255, 255, 255);" bx:origin="0.500008 6.659073"/>
      <path d="M 106.674 36 L 102.063 36 L 102.062 36.001 L 102.063 36.003 L 105.793 38.713 L 104.367 43.097 L 104.369 43.099 L 104.37 43.099 L 108.1 40.389 L 111.83 43.099 L 111.832 43.099 L 111.832 43.097 L 110.407 38.713 L 114.137 36.003 L 114.138 36.001 L 114.137 36 L 109.526 36 L 108.101 31.615 L 108.1 31.614 L 108.099 31.615 L 106.674 36 Z M 111.833 43.097 L 111.833 43.099 L 111.833 43.097 Z M 104.37 43.099 L 104.369 43.1 L 104.37 43.099 Z" style="stroke-width: 2px; vector-effect: non-scaling-stroke; fill: rgb(255, 255, 255);" transform="matrix(0.900968869363, 0.433883736086, -0.433883736086, 0.900968869363, 57.608150115773, -36.197597950547)" bx:origin="0.500008 6.659073"/>
      <path d="M 106.674 36 L 102.063 36 L 102.062 36.001 L 102.063 36.003 L 105.793 38.713 L 104.367 43.097 L 104.369 43.099 L 104.37 43.099 L 108.1 40.389 L 111.83 43.099 L 111.832 43.099 L 111.832 43.097 L 110.407 38.713 L 114.137 36.003 L 114.138 36.001 L 114.137 36 L 109.526 36 L 108.101 31.615 L 108.1 31.614 L 108.099 31.615 L 106.674 36 Z M 111.833 43.097 L 111.833 43.099 L 111.833 43.097 Z M 104.37 43.099 L 104.369 43.1 L 104.37 43.099 Z" style="stroke-width: 2px; vector-effect: non-scaling-stroke; fill: rgb(255, 255, 255);" transform="matrix(0.623489818048, 0.781831469558, -0.781831469558, 0.623489818048, 125.216846904627, -43.8152676877)" bx:origin="0.500008 6.659073"/>
      <path d="M 106.674 36 L 102.063 36 L 102.062 36.001 L 102.063 36.003 L 105.793 38.713 L 104.367 43.097 L 104.369 43.099 L 104.37 43.099 L 108.1 40.389 L 111.83 43.099 L 111.832 43.099 L 111.832 43.097 L 110.407 38.713 L 114.137 36.003 L 114.138 36.001 L 114.137 36 L 109.526 36 L 108.101 31.615 L 108.1 31.614 L 108.099 31.615 L 106.674 36 Z M 111.833 43.097 L 111.833 43.099 L 111.833 43.097 Z M 104.37 43.099 L 104.369 43.1 L 104.37 43.099 Z" style="stroke-width: 2px; vector-effect: non-scaling-stroke; fill: rgb(255, 255, 255);" transform="matrix(0.222520906459, 0.974927918458, -0.974927918458, 0.222520906459, 189.435369905369, -21.344232532214)" bx:origin="0.500008 6.659073"/>
      <path d="M 106.674 36 L 102.063 36 L 102.062 36.001 L 102.063 36.003 L 105.793 38.713 L 104.367 43.097 L 104.369 43.099 L 104.37 43.099 L 108.1 40.389 L 111.83 43.099 L 111.832 43.099 L 111.832 43.097 L 110.407 38.713 L 114.137 36.003 L 114.138 36.001 L 114.137 36 L 109.526 36 L 108.101 31.615 L 108.1 31.614 L 108.099 31.615 L 106.674 36 Z M 111.833 43.097 L 111.833 43.099 L 111.833 43.097 Z M 104.37 43.099 L 104.369 43.1 L 104.37 43.099 Z" style="stroke-width: 2px; vector-effect: non-scaling-stroke; fill: rgb(255, 255, 255);" transform="matrix(-0.222520876899, 0.974927925205, -0.974927925205, -0.222520876899, 237.544429731238, 26.764828247831)" bx:origin="0.500008 6.659073"/>
      <path d="M 106.674 36 L 102.063 36 L 102.062 36.001 L 102.063 36.003 L 105.793 38.713 L 104.367 43.097 L 104.369 43.099 L 104.37 43.099 L 108.1 40.389 L 111.83 43.099 L 111.832 43.099 L 111.832 43.097 L 110.407 38.713 L 114.137 36.003 L 114.138 36.001 L 114.137 36 L 109.526 36 L 108.101 31.615 L 108.1 31.614 L 108.099 31.615 L 106.674 36 Z M 111.833 43.097 L 111.833 43.099 L 111.833 43.097 Z M 104.37 43.099 L 104.369 43.1 L 104.37 43.099 Z" style="stroke-width: 2px; vector-effect: non-scaling-stroke; fill: rgb(255, 255, 255);" transform="matrix(-0.623489818048, 0.781831469558, -0.781831469558, -0.623489818048, 260.015464132008, 90.983356300237)" bx:origin="0.500008 6.659073"/>
      <path d="M 106.674 36 L 102.063 36 L 102.062 36.001 L 102.063 36.003 L 105.793 38.713 L 104.367 43.097 L 104.369 43.099 L 104.37 43.099 L 108.1 40.389 L 111.83 43.099 L 111.832 43.099 L 111.832 43.097 L 110.407 38.713 L 114.137 36.003 L 114.138 36.001 L 114.137 36 L 109.526 36 L 108.101 31.615 L 108.1 31.614 L 108.099 31.615 L 106.674 36 Z M 111.833 43.097 L 111.833 43.099 L 111.833 43.097 Z M 104.37 43.099 L 104.369 43.1 L 104.37 43.099 Z" style="stroke-width: 2px; vector-effect: non-scaling-stroke; fill: rgb(255, 255, 255);" transform="matrix(0.623489818048, -0.781831469558, 0.781831469558, 0.623489818048, -43.815273967701, 125.21684470716)" bx:origin="0.500008 6.659073"/>
      <path d="M 106.674 36 L 102.063 36 L 102.062 36.001 L 102.063 36.003 L 105.793 38.713 L 104.367 43.097 L 104.369 43.099 L 104.37 43.099 L 108.1 40.389 L 111.83 43.099 L 111.832 43.099 L 111.832 43.097 L 110.407 38.713 L 114.137 36.003 L 114.138 36.001 L 114.137 36 L 109.526 36 L 108.101 31.615 L 108.1 31.614 L 108.099 31.615 L 106.674 36 Z M 111.833 43.097 L 111.833 43.099 L 111.833 43.097 Z M 104.37 43.099 L 104.369 43.1 L 104.37 43.099 Z" style="stroke-width: 2px; vector-effect: non-scaling-stroke; fill: rgb(255, 255, 255);" transform="matrix(0.900968881013, -0.433883711894, 0.433883711894, 0.900968881013, -36.197599484011, 57.608144425822)" bx:origin="0.500008 6.659073"/>
      <path d="M 106.674 36 L 102.063 36 L 102.062 36.001 L 102.063 36.003 L 105.793 38.713 L 104.367 43.097 L 104.369 43.099 L 104.37 43.099 L 108.1 40.389 L 111.83 43.099 L 111.832 43.099 L 111.832 43.097 L 110.407 38.713 L 114.137 36.003 L 114.138 36.001 L 114.137 36 L 109.526 36 L 108.101 31.615 L 108.1 31.614 L 108.099 31.615 L 106.674 36 Z M 111.833 43.097 L 111.833 43.099 L 111.833 43.097 Z M 104.37 43.099 L 104.369 43.1 L 104.37 43.099 Z" style="stroke-width: 2px; vector-effect: non-scaling-stroke; fill: rgb(255, 255, 255);" transform="matrix(-0.222520876899, -0.974927925205, 0.974927925205, -0.222520876899, 26.764816334264, 237.544431073575)" bx:origin="0.500008 6.659073"/>
      <path d="M 106.674 36 L 102.063 36 L 102.062 36.001 L 102.063 36.003 L 105.793 38.713 L 104.367 43.097 L 104.369 43.099 L 104.37 43.099 L 108.1 40.389 L 111.83 43.099 L 111.832 43.099 L 111.832 43.097 L 110.407 38.713 L 114.137 36.003 L 114.138 36.001 L 114.137 36 L 109.526 36 L 108.101 31.615 L 108.1 31.614 L 108.099 31.615 L 106.674 36 Z M 111.833 43.097 L 111.833 43.099 L 111.833 43.097 Z M 104.37 43.099 L 104.369 43.1 L 104.37 43.099 Z" style="stroke-width: 2px; vector-effect: non-scaling-stroke; fill: rgb(255, 255, 255);" transform="matrix(0.222520947716, -0.974927909041, 0.974927909041, 0.222520947716, -21.344245474946, 189.435363357014)" bx:origin="0.500008 6.659073"/>
      <path d="M 106.674 36 L 102.063 36 L 102.062 36.001 L 102.063 36.003 L 105.793 38.713 L 104.367 43.097 L 104.369 43.099 L 104.37 43.099 L 108.1 40.389 L 111.83 43.099 L 111.832 43.099 L 111.832 43.097 L 110.407 38.713 L 114.137 36.003 L 114.138 36.001 L 114.137 36 L 109.526 36 L 108.101 31.615 L 108.1 31.614 L 108.099 31.615 L 106.674 36 Z M 111.833 43.097 L 111.833 43.099 L 111.833 43.097 Z M 104.37 43.099 L 104.369 43.1 L 104.37 43.099 Z" style="stroke-width: 2px; vector-effect: non-scaling-stroke; fill: rgb(255, 255, 255);" transform="matrix(-0.623489854481, -0.781831440503, 0.781831440503, -0.623489854481, 90.983350339055, 260.015469492751)" bx:origin="0.500008 6.659073"/>
    </g>
    <g id="Eagle">
      <path fill="#FFFFFF" stroke="#231F20" stroke-width="0.5" d="M88.9,74.8c-4-8.7,3.5-9.3,3.5-9.3c-3.4-6,1.9-8,1.9-8 c0.1-0.6,0.4-1.1,0.8-1.4c0.5-0.3,1.1-0.5,1.7-0.5c0-3.4,3.2-4.5,4.3-4.7c0.6-0.1,1.2,0,1.6,0.4c0.6-0.3,1.2,0.3,1.2,0.3 c0.5-0.9,1.7-2.2,4.9-2.2c2.7,0,3.6,0.9,4.5,2.3c1-0.6,2.9-0.3,3.2,0.4c0,0,0.9-0.6,1.3,0.8c0.7-0.4,1.6-0.2,2,0.6 c0,0,0,0.1,0.1,0.1c0.4,0.7,0.7,1.5,0.8,2.3c0.4-0.2,0.8-0.3,1.2-0.3c0.7,0,1.2,0,1.6,1.2v2c1.1,0.2,2.1,0.9,2.7,1.9 c2.5,3.6,0,8.7,0,8.7c1.3,0.6,2,1.9,2.1,4.2s-2.1,4.4-2.1,4.4c0.2,0.8-0.1,1.6-0.9,1.9c3,8.5-16.7,9.7-16.7,9.7 c-4.6,0.5-9.2-0.3-13.3-2.3c-6.3-3.2-5-7.1-5-7.1c-3.6-2.1-1.7-6.2-1.7-6.2"/>
      <path fill="#FFFFFF" stroke="#231F20" stroke-width="0.37" stroke-linecap="round" d="M90,90.8c0.5,0.5,1.2,0.8,1.9,0.8 c0.7,0.1,1.4-0.5,1.5-1.2c0-0.1,0-0.3,0-0.4c-0.1-0.9-1.8-4.2-4.8-2.9l-0.3-0.2c-0.5-0.4-1.1-0.6-1.7-0.7 c-0.8-0.1-1.4,0.5-1.5,1.2c0,0.1,0,0.3,0,0.4C85.2,88.7,87,92.1,90,90.8z"/>
      <path fill="#FFFFFF" stroke="#231F20" stroke-width="0.37" stroke-linecap="round" d="M105.3,90.8c0.5,0.5,1.2,0.8,1.9,0.8 c0.8,0.1,1.4-0.5,1.5-1.2c0-0.1,0-0.3,0-0.4c-0.1-0.9-1.8-4.2-4.8-2.9l-0.3-0.2c-0.5-0.4-1.1-0.6-1.7-0.7 c-0.8-0.1-1.4,0.5-1.5,1.2c0,0.1,0,0.3,0,0.4C100.6,88.7,102.3,92.1,105.3,90.8z"/>
      <path fill="#FFFFFF" stroke="#231F20" stroke-width="0.37" stroke-linecap="round" d="M120.6,90.8c0.5,0.5,1.2,0.8,1.9,0.8 c0.8,0.1,1.4-0.5,1.5-1.2c0-0.1,0-0.2,0-0.4c-0.1-0.9-1.8-4.2-4.8-2.9l-0.3-0.2c-0.5-0.4-1.1-0.6-1.7-0.7 c-0.7-0.1-1.4,0.4-1.5,1.2c0,0.1,0,0.3,0,0.4C115.8,88.7,117.6,92.1,120.6,90.8z"/>
      <path fill="#6ACFF6" stroke="#231F20" stroke-width="0.37" stroke-linecap="round" d="M97.6,90.8c0.5,0.5,1.2,0.8,1.9,0.8 c0.8,0.1,1.4-0.5,1.5-1.2c0-0.1,0-0.3,0-0.4c-0.1-0.9-1.8-4.2-4.8-2.9L96,86.9c-0.5-0.4-1.1-0.6-1.7-0.7 c-0.8-0.1-1.4,0.5-1.5,1.2c0,0.1,0,0.3,0,0.4C92.9,88.7,94.7,92.1,97.6,90.8z"/>
      <path fill="#6ACFF6" stroke="#231F20" stroke-width="0.37" stroke-linecap="round" d="M112.9,90.8c0.5,0.5,1.2,0.8,1.9,0.8 c0.8,0.1,1.4-0.5,1.5-1.2c0-0.1,0-0.3,0-0.4c-0.1-0.9-1.8-4.2-4.8-2.9l-0.3-0.2c-0.5-0.4-1.1-0.6-1.7-0.7 c-0.8-0.1-1.4,0.5-1.5,1.2c0,0.1,0,0.3,0,0.4C108.2,88.7,110,92.1,112.9,90.8z"/>
      <path fill="#6ACFF6" stroke="#231F20" stroke-width="0.37" stroke-linecap="round" d="M128.2,90.8c0.5,0.5,1.2,0.8,1.9,0.8 c0.8,0.1,1.4-0.5,1.5-1.2c0-0.1,0-0.3,0-0.4c-0.1-0.9-1.8-4.2-4.8-2.9l-0.3-0.2c-0.5-0.4-1.1-0.6-1.7-0.7 c-0.8-0.1-1.4,0.5-1.5,1.2c0,0.1,0,0.3,0,0.4C123.5,88.7,125.3,92.1,128.2,90.8z"/>
      <path fill="#FFFFFF" stroke="#231F20" stroke-width="0.37" stroke-linecap="round" d="M89.9,87.7c-0.8,0-0.5,0.1-1.2-0.5"/>
      <path fill="#FFFFFF" stroke="#231F20" stroke-width="0.37" stroke-linecap="round" d="M88.5,89.9c0.5,0.1,1,0.3,1.3,0.7"/>
      <path fill="#FFFFFF" stroke="#231F20" stroke-width="0.37" stroke-linecap="round" d="M97.6,87.7c-0.8,0-0.5,0.1-1.2-0.5"/>
      <path fill="#FFFFFF" stroke="#231F20" stroke-width="0.37" stroke-linecap="round" d="M96.2,89.9c0.5,0.1,1,0.3,1.3,0.7"/>
      <path fill="#FFFFFF" stroke="#231F20" stroke-width="0.37" stroke-linecap="round" d="M105.2,87.7c-0.8,0-0.5,0.1-1.2-0.5"/>
      <path fill="#FFFFFF" stroke="#231F20" stroke-width="0.37" stroke-linecap="round" d="M103.9,89.9c0.5,0.1,1,0.3,1.3,0.7"/>
      <path fill="#FFFFFF" stroke="#231F20" stroke-width="0.37" stroke-linecap="round" d="M112.8,87.7c-0.8,0-0.5,0.1-1.2-0.5"/>
      <path fill="#FFFFFF" stroke="#231F20" stroke-width="0.37" stroke-linecap="round" d="M111.5,89.9c0.5,0.1,1,0.3,1.3,0.7"/>
      <path fill="#FFFFFF" stroke="#231F20" stroke-width="0.37" stroke-linecap="round" d="M120.5,87.7c-0.8,0-0.5,0.1-1.2-0.5"/>
      <path fill="#FFFFFF" stroke="#231F20" stroke-width="0.37" stroke-linecap="round" d="M119.2,89.9c0.5,0.1,1,0.3,1.3,0.7"/>
      <path fill="#FFFFFF" stroke="#231F20" stroke-width="0.37" stroke-linecap="round" d="M128.1,87.7c-0.8,0-0.5,0.1-1.2-0.5"/>
      <path fill="#FFFFFF" stroke="#231F20" stroke-width="0.37" stroke-linecap="round" d="M126.8,89.9c0.5,0.1,1,0.3,1.3,0.7"/>
      <path fill="#B0720D" d="M128.6,68.6L128.6,68.6c0.3-0.4,0.4-0.8,0.3-1.3c0.4,0.3,0.9,0.3,1.3,0c0.8-0.5,0.6-1.1,0.6-1.1 s0.3,0.3,1.5,0.1c1.2-0.3,0.9-1.1,0.9-1.1c0.9,0.2,1.8-0.2,2.1-1c3.9,1,3.8-1,3.8-1c1,0.4,2.2,0.5,3.3,0.2 c1.9-0.6,1.2-1.3,1.2-1.3c1.8,0.3,3.6-1.2,3.5-1.9s-2.4-0.2-2.4-0.2c4.4-1.5,5.6-3.3,4.8-3.4c-0.9,0-1.3,0.4-2.1,0.4 c-1.1,0-2.6-0.2-2.6-0.2c1.6-0.6,2.8-1,4-1.5c2.6-1,3.2-2.3,2.7-2.4s-0.9,0.6-1.5,0.6s-1.4-0.1-1.4-0.1c4.2-2,4.8-3.9,4.2-3.9 c-0.6,0-0.7,1-1.5,1.2c-0.8,0.2-3.7,0.6-3.7,0.6c0.4-0.9-0.1-1.9-0.7-1.6s-0.5,1.7-3.5,1.8c-2.2,0.2-4.4,0.9-6.3,2.1 c0.3-0.7-0.6-1.5-0.8-0.8c-0.1,0.7-1.9,1.4-1.9,1.4c-0.8,0.7-10.3,1.3-12.3,4.2c-2.6,3.6-5.6,5.1-10.1,3.3l-5.4,0.7 c-4.6,1.6-7.5,0.1-10-3.6c-2-2.9-11.4-3.8-12.2-4.6c0,0-1.7-0.7-1.9-1.4s-1.1,0-0.8,0.8c-1.9-1.2-4-2-6.2-2.3 c-3-0.3-2.9-1.6-3.5-1.9c-0.6-0.3-1.1,0.7-0.8,1.6c0,0-2.9-0.6-3.7-0.8s-0.9-1.2-1.6-1.2s-0.1,1.9,4,4c0,0-0.9,0.1-1.4,0.1 s-1-0.6-1.5-0.6s0,1.3,2.6,2.4c1.2,0.5,2.3,0.9,3.9,1.6c0,0-1.5,0.1-2.6,0.1c-0.7,0-1.2-0.5-2-0.5s0.4,1.9,4.7,3.5 c0,0-2.2-0.6-2.4,0.1s1.6,2.3,3.4,2c0,0-0.7,0.7,1.1,1.4c1.1,0.3,2.2,0.3,3.3-0.1c0,0-0.2,2,3.7,1.1c0,0,0.4,1.2,2.1,1.1 c0,0-0.3,0.8,0.9,1.1s1.5,0,1.5,0s-0.2,0.6,0.6,1.1c0.4,0.3,0.9,0.3,1.3,0.1c-0.1,0.4-0.1,0.8,0.1,1.2L128.6,68.6z"/>
      <path fill="#B0720D" d="M89.1,68.6c0,0.1,0.1,0.1,0.1,0.2c0.2,0.4,0.7,0.5,1.1,0.3c0,0-0.3,0.4,0.3,1.2s1,0.4,1,0.4 c0,0.3,0.1,0.7,0.3,0.9c0.2,0.2,0.5,0.4,0.8,0.4c0,0.3,0.1,0.6,0.2,0.8c0.2,0.2,0.5,0.4,0.8,0.5c0,0.3,0.1,0.5,0.3,0.8 c0.3,0.3,0.6,0.4,1,0.5c0,0-0.1,0.6,0.3,0.9s1.6-0.1,1.6-0.1s-0.1,0.3,0.5,0.6c0.4,0.2,0.9,0.2,1.4,0.2l4.5-3l-8.5,6.4 c0,0-0.9,0.2,0.5,2.4c-0.1,0.8,0.3,1.6,0.9,2c1.1,0.8,1.8,0.2,1.8,0.2s0.1,0.9,1.5,1.2l0.6,0.1h0.3c-0.3,0.1-0.5,0.2-0.7,0.4 c-0.3,0.3-0.4,0.7-0.4,1.1c0.2,0.8,1,1.2,1.8,1c0.3-0.1,0.6-0.3,0.8-0.6l0,0l0.7-0.4c0.3,0.6,0.9,1,1.5,1.1 c0.6,0.1,1.2-0.3,1.5-0.9h0.8l0.9,0.4c0,0,1.7-0.1,1.6-0.4l0.4-1.1c0.1,1.8,1.6,1.4,1.6,1.4l1.4-0.9l0.3-0.1 c0.2,0.6,0.8,1,1.5,0.9c0.6-0.1,1.2-0.5,1.5-1.1l0.6,0.3l1.2,0.5c0.6,0.1,1-0.7,1-0.7c0-0.4-0.2-0.8-0.4-1.1 c-0.5-0.5-0.7-0.5-0.7-0.5l0,0l1.3-0.1c1.4-0.2,1.5-1.1,1.5-1.1s0.6,0.6,1.8-0.1c0.7-0.4,1.1-1.2,1-2c1.4-2.2,0.6-2.4,0.6-2.4 l-8.4-6.7l4.4,3.2c0.5,0.1,1,0.1,1.4-0.1c0.6-0.3,0.6-0.6,0.6-0.6s1.2,0.4,1.6,0.1s0.3-0.9,0.3-0.9c0.4-0.1,0.7-0.2,1-0.5 c0.2-0.2,0.3-0.5,0.3-0.7c0.3-0.1,0.5-0.3,0.8-0.5c0.1-0.3,0.2-0.5,0.2-0.8c0.3,0,0.6-0.2,0.8-0.4c0.2-0.2,0.3-0.6,0.3-0.9 c0,0,0.4,0.4,1-0.4s0.3-1.2,0.3-1.2c0.3,0.2,0.8,0.1,1-0.2L89.1,68.6z"/>
      <path fill="none" stroke="#231F20" stroke-width="0.5" stroke-linecap="round" stroke-linejoin="round" d="M108.9,86.2 c0.1,1.8,1.6,1.4,1.6,1.4l1.4-0.9l0.3-0.1c0.2,0.6,0.8,1,1.5,0.9c0.6-0.1,1.2-0.5,1.5-1.1l0.6,0.3l1.2,0.5c0.6,0.1,1-0.7,1-0.7 c0-0.4-0.2-0.8-0.4-1.1c-0.5-0.5-0.7-0.5-0.7-0.5l0,0l1.3-0.1c1.4-0.2,1.5-1.1,1.5-1.1s0.6,0.6,1.8-0.1c0.7-0.4,1.1-1.2,1-2 c1.4-2.2,0.6-2.4,0.6-2.4l-8.4-6.7l4.4,3.2c0.5,0.1,1,0.1,1.4-0.1c0.6-0.3,0.6-0.6,0.6-0.6s1.2,0.4,1.6,0.1s0.3-0.9,0.3-0.9 c0.4-0.1,0.7-0.2,1-0.5c0.2-0.2,0.3-0.5,0.3-0.7c0.3-0.1,0.5-0.3,0.8-0.5c0.1-0.3,0.2-0.5,0.2-0.8c0.3,0,0.6-0.2,0.8-0.4 c0.2-0.2,0.3-0.6,0.3-0.9c0,0,0.4,0.4,1-0.4s0.3-1.2,0.3-1.2c0.4,0.2,0.9,0.1,1.1-0.3c0.3-0.4,0.4-0.8,0.3-1.3 c0.4,0.3,0.9,0.3,1.3,0c0.8-0.5,0.6-1.1,0.6-1.1s0.3,0.3,1.5,0.1s0.9-1.1,0.9-1.1c0.9,0.2,1.8-0.2,2.1-1c3.9,1,3.8-1,3.8-1 c1,0.4,2.2,0.5,3.3,0.2c1.9-0.6,1.2-1.3,1.2-1.3c1.8,0.3,3.6-1.2,3.5-1.9s-2.4-0.2-2.4-0.2c4.4-1.5,5.6-3.3,4.8-3.4 s-1.3,0.4-2.1,0.4c-1.1,0-2.6-0.2-2.6-0.2c1.6-0.6,2.8-1,4-1.5c2.6-1,3.2-2.3,2.7-2.4s-0.9,0.6-1.5,0.6s-1.4-0.1-1.4-0.1 c4.2-2,4.8-3.9,4.2-3.9s-0.7,1-1.5,1.2s-3.7,0.6-3.7,0.6c0.4-0.9-0.1-1.9-0.7-1.6s-0.5,1.7-3.5,1.8c-2.2,0.2-4.4,0.9-6.3,2.1 c0.3-0.7-0.6-1.5-0.8-0.8s-1.9,1.4-1.9,1.4c-0.8,0.7-10.3,1.3-12.3,4.2c-2.6,3.6-5.6,5.1-10.1,3.3l-5.4,0.7 c-4.6,1.6-7.5,0.1-10-3.6c-2-2.9-11.4-3.8-12.2-4.5c0,0-1.7-0.7-1.9-1.4s-1.1,0-0.8,0.8c-1.9-1.2-4-2-6.2-2.3 c-3-0.3-2.9-1.6-3.5-1.9s-1.1,0.7-0.8,1.6c0,0-2.9-0.6-3.7-0.8S66.3,49,65.7,49s-0.1,1.9,4,4c0,0-0.9,0.1-1.4,0.1s-1-0.6-1.5-0.6 s0,1.3,2.6,2.4c1.2,0.5,2.3,0.9,3.9,1.6c0,0-1.5,0.1-2.6,0.1c-0.7,0-1.2-0.5-2-0.5s0.4,1.9,4.7,3.5c0,0-2.2-0.6-2.4,0.1 s1.6,2.3,3.4,2c0,0-0.7,0.7,1.1,1.4c1.1,0.3,2.2,0.3,3.3-0.1c0,0-0.2,2,3.7,1.1c0,0,0.4,1.2,2.1,1.1c0,0-0.3,0.8,0.9,1.1 s1.5,0,1.5,0s-0.2,0.6,0.6,1.1c0.4,0.3,0.9,0.3,1.3,0.1c-0.1,0.5,0,0.9,0.3,1.3c0.2,0.4,0.7,0.5,1.1,0.3c0,0-0.3,0.4,0.3,1.2 s1,0.4,1,0.4c0,0.3,0.1,0.7,0.3,0.9c0.2,0.2,0.5,0.4,0.8,0.4c0,0.3,0.1,0.6,0.2,0.8c0.2,0.2,0.5,0.4,0.8,0.5 c0,0.3,0.1,0.5,0.3,0.8c0.3,0.3,0.6,0.4,1,0.5c0,0-0.1,0.6,0.3,0.9s1.6-0.1,1.6-0.1s-0.1,0.3,0.5,0.6c0.4,0.2,0.9,0.2,1.4,0.2 l4.5-3l-8.5,6.5c0,0-0.9,0.2,0.5,2.4c-0.1,0.8,0.3,1.6,0.9,2c1.1,0.8,1.8,0.2,1.8,0.2s0.1,0.9,1.5,1.2l0.6,0.1h0.3 c-0.3,0.1-0.5,0.2-0.7,0.4c-0.3,0.3-0.4,0.7-0.4,1.1c0.2,0.8,1,1.2,1.8,1c0.3-0.1,0.6-0.3,0.8-0.6l0,0l0.7-0.4 c0.3,0.6,0.9,1,1.5,1.1c0.6,0.1,1.2-0.3,1.5-0.9h0.8l0.9,0.4c0,0,1.7-0.1,1.6-0.4"/>
      <line fill="none" stroke="#231F20" stroke-width="0.37" x1="103.9" y1="51.8" x2="103.7" y2="52.1"/>
      <path fill="none" stroke="#231F20" stroke-width="0.5" d="M102.7,51.3c-0.2,0.1-0.3,0.3-0.4,0.5"/>
      <path fill="none" stroke="#231F20" stroke-width="0.5" d="M113.4,51.8c0.1,0.2,0.3,0.5,0.4,0.7"/>
      <path fill="none" stroke="#231F20" stroke-width="0.5" d="M96.8,55.9c0,1.4,0.6,1.2,0.6,1.2"/>
      <path fill="none" stroke="#231F20" stroke-width="0.25" d="M96.3,56.5c0,0.3,0.1,0.6,0.3,0.8"/>
      <line fill="none" stroke="#231F20" stroke-width="0.37" x1="114" y1="52.9" x2="114.2" y2="53.1"/>
      <line fill="none" stroke="#231F20" stroke-width="0.37" x1="120.8" y1="56.2" x2="120.9" y2="56.4"/>
      <line fill="none" stroke="#231F20" stroke-width="0.37" stroke-linecap="round" x1="89.4" y1="75.3" x2="89.7" y2="75.8"/>
      <line fill="none" stroke="#231F20" stroke-width="0.5" stroke-linecap="round" x1="90.8" y1="80.4" x2="91.3" y2="80.7"/>
      <path fill="none" stroke="#231F20" stroke-width="0.5" stroke-linecap="round" d="M91.1,81.5l0.6,0.3"/>
      <path fill="none" stroke="#231F20" stroke-width="0.5" stroke-linecap="round" d="M125.2,78.6c-0.2,0.3-0.5,0.5-0.9,0.7"/>
      <path fill="none" stroke="#231F20" stroke-width="0.5" stroke-linecap="round" d="M125.3,79.8c-0.2,0.3-0.5,0.5-0.9,0.7"/>
      <path fill="none" stroke="#231F20" stroke-width="0.37" stroke-linecap="round" d="M81.5,53.9c0.7,1.3,3,2.7,8.5,4l1.9,0.9"/>
      <path fill="none" stroke="#231F20" stroke-width="0.37" stroke-linecap="round" d="M82.6,55.1c0,0.9,0.5,1.6,1.2,2 c1.3,0.5,5.6,1.3,6,0.9"/>
      <path fill="none" stroke="#231F20" stroke-width="0.37" stroke-linecap="round" d="M84.3,57.5c0,0,0.4,1.7,4.8,1.5 c0.3,0,0.6-0.1,0.9-0.3"/>
      <path fill="none" stroke="#231F20" stroke-width="0.37" stroke-linecap="round" d="M90.3,59.5c-1.1,0.6-2.4,0.9-3.6,0.9 c-0.8-0.1-1.3-0.9-1.2-1.7"/>
      <path fill="none" stroke="#231F20" stroke-width="0.37" stroke-linecap="round" d="M90,58.1c-0.2,0.4-0.1,0.8,0.2,1c0,0,0,0,0,0 c0.5,0.2,1,0.3,1.5,0.3"/>
      <path fill="none" stroke="#231F20" stroke-width="0.37" stroke-linecap="round" d="M90.3,59.2c-0.1,0.2,0,1,0.4,1.1 c0.4,0.1,0.9,0.1,1.3-0.1"/>
      <path fill="none" stroke="#231F20" stroke-width="0.37" stroke-linecap="round" d="M78.7,63c2.6-0.6,5.2-1.5,7.5-2.7"/>
      <path fill="none" stroke="#231F20" stroke-width="0.37" stroke-linecap="round" d="M82.4,64c0,0,3.4-0.5,4.7-2.4"/>
      <path fill="none" stroke="#231F20" stroke-width="0.37" stroke-linecap="round" d="M74.6,61.8c0.9-0.1,7.3-1.3,10.8-3.2"/>
      <path fill="none" stroke="#231F20" stroke-width="0.37" stroke-linecap="round" d="M73.6,59.6c0,0,3.8,0.6,11.1-1.5"/>
      <path fill="none" stroke="#231F20" stroke-width="0.37" stroke-linecap="round" d="M86.7,60.4c-0.1,0.7,0.5,1.4,1.2,1.5 c0.1,0,0.1,0,0.2,0c0.8-0.1,1.5-0.3,2.2-0.6"/>
      <path fill="none" stroke="#231F20" stroke-width="0.37" stroke-linecap="round" d="M90.5,60.2c-0.1,0.4-0.4,1.1,0.1,1.3 c0.5,0.2,1,0.1,1.5-0.1"/>
      <path fill="none" stroke="#231F20" stroke-width="0.37" stroke-linecap="round" d="M88.5,62c0.6,0.6,1.4,0.8,2.2,0.6"/>
      <path fill="none" stroke="#231F20" stroke-width="0.37" stroke-linecap="round" d="M90.8,61.5c-0.1,0.4-0.3,1.3,0.3,1.5 s1.3-0.5,1.3-0.5"/>
      <path fill="none" stroke="#231F20" stroke-width="0.37" stroke-linecap="round" d="M91.2,63c0.1,0.7,0,1.1,0.4,1.3 c0.6,0.2,1.3,0.1,1.9-0.2"/>
      <path fill="none" stroke="#231F20" stroke-width="0.37" stroke-linecap="round" d="M84.6,65.1c1.1-0.3,3.2-0.6,4.7-2.6"/>
      <path fill="none" stroke="#231F20" stroke-width="0.37" stroke-linecap="round" d="M86.9,66.3c0.8-0.3,3.4-1.7,4-3.3"/>
      <path fill="none" stroke="#231F20" stroke-width="0.37" stroke-linecap="round" d="M88.9,67.4c1.2-0.6,2.2-1.6,2.9-2.8"/>
      <path fill="none" stroke="#231F20" stroke-width="0.37" stroke-linecap="round" d="M73.4,56.6l1,1.1c0,0,8.2,0,9.6-0.2"/>
      <path fill="none" stroke="#231F20" stroke-width="0.37" stroke-linecap="round" d="M70,53c2.4,1.9,2.9,0,5.7,3 c2.4,0.2,4.7,0.2,7.1,0.1"/>
      <path fill="none" stroke="#231F20" stroke-width="0.37" stroke-linecap="round" d="M70.9,51c1.9,2.3,5.4,1.1,7.5,4.4l3.9,0.1"/>
      <path fill="none" stroke="#231F20" stroke-width="0.37" stroke-linecap="round" d="M92.3,64.7c0.1,0.6,0.2,1.1,0.7,1.2 s1.6-0.8,1.6-0.8"/>
      <path fill="none" stroke="#231F20" stroke-width="0.37" stroke-linecap="round" d="M93.4,65.9c0.1,0.5,0.3,1.1,0.9,1.1 c0.6-0.1,1.1-0.4,1.5-0.7"/>
      <path fill="none" stroke="#231F20" stroke-width="0.37" stroke-linecap="round" d="M90.5,68.9c1.2-0.6,2.2-1.4,3-2.4"/>
      <path fill="none" stroke="#231F20" stroke-width="0.37" stroke-linecap="round" d="M91.5,70.6c1-0.4,3.1-1.8,3.6-2.7"/>
      <path fill="none" stroke="#231F20" stroke-width="0.37" stroke-linecap="round" d="M92.6,71.9c0.6-0.3,2.7-1.5,3.3-2.8"/>
      <path fill="none" stroke="#231F20" stroke-width="0.37" stroke-linecap="round" d="M93.5,73.3c1.5-0.7,2.7-1.9,3.5-3.3"/>
      <path fill="none" stroke="#231F20" stroke-width="0.37" stroke-linecap="round" d="M94.7,67.1c0.1,0.7,0.1,1.2,0.6,1.4 s1.5-0.8,1.5-1.1"/>
      <path fill="none" stroke="#231F20" stroke-width="0.37" stroke-linecap="round" d="M95.7,68.5c0.1,0.4,0.3,1.1,1.1,1.1 s1.4-1.4,1.4-1.4"/>
      <path fill="none" stroke="#231F20" stroke-width="0.37" stroke-linecap="round" d="M97.2,69.5c0.1,0.5,0.5,0.8,0.9,0.9 c0.7,0.1,1.3-1.6,1.3-1.6"/>
      <path fill="none" stroke="#231F20" stroke-width="0.37" stroke-linecap="round" d="M98.1,70.5c-0.5,1.7-1.6,3.1-3.1,3.9"/>
      <path fill="none" stroke="#231F20" stroke-width="0.37" stroke-linecap="round" d="M96.7,75.4c0,0,2.6-1.7,2.5-4.2"/>
      <path fill="none" stroke="#231F20" stroke-width="0.37" stroke-linecap="round" d="M98.3,76c0,0,2.4-1.7,2-4.2"/>
      <path fill="none" stroke="#231F20" stroke-width="0.37" stroke-linecap="round" d="M98.6,70.5c0.1,0.4,0.6,1.1,1.4,0.8 s1.1-1.9,1.1-1.9"/>
      <path fill="none" stroke="#231F20" stroke-width="0.37" stroke-linecap="round" d="M100.2,71.3c0.4,0.5,0.8,0.8,1.2,0.7 s0.9-1,1-1.8"/>
      <path fill="none" stroke="#231F20" stroke-width="0.37" stroke-linecap="round" d="M101.9,72.2c0,0.6,0,1.2-0.1,1.8"/>
      <path fill="none" stroke="#231F20" stroke-width="0.37" stroke-linecap="round" d="M101.7,71.8c0.2,0.5,0.8,0.7,1.3,0.6"/>
      <path fill="none" stroke="#231F20" stroke-width="0.37" stroke-linecap="round" d="M136.8,53.9c-0.7,1.3-3.1,2.7-8.6,3.8 l-1.9,0.8"/>
      <path fill="none" stroke="#231F20" stroke-width="0.37" stroke-linecap="round" d="M135.7,55.1c0,0.9-0.5,1.6-1.3,2 c-1.3,0.5-5.6,1.1-6.1,0.8"/>
      <path fill="none" stroke="#231F20" stroke-width="0.37" stroke-linecap="round" d="M133.9,57.4c0,0-0.5,1.7-4.8,1.4 c-0.3,0-0.6-0.1-0.9-0.3"/>
      <path fill="none" stroke="#231F20" stroke-width="0.37" stroke-linecap="round" d="M127.8,59.3c1.1,0.6,2.3,0.9,3.6,1 c0.8-0.1,1.3-0.9,1.2-1.7"/>
      <path fill="none" stroke="#231F20" stroke-width="0.37" stroke-linecap="round" d="M128.1,57.9c0.2,0.4,0,0.8-0.3,1 c-0.5,0.2-1,0.3-1.5,0.2"/>
      <path fill="none" stroke="#231F20" stroke-width="0.37" stroke-linecap="round" d="M127.8,58.9c0.1,0.2-0.1,1-0.5,1 c-0.4,0.1-0.9,0-1.3-0.1"/>
      <path fill="none" stroke="#231F20" stroke-width="0.37" stroke-linecap="round" d="M139.3,63.1c-2.6-0.7-5.1-1.7-7.5-3"/>
      <path fill="none" stroke="#231F20" stroke-width="0.37" stroke-linecap="round" d="M135.6,64c0,0-3.4-0.6-4.7-2.6"/>
      <path fill="none" stroke="#231F20" stroke-width="0.37" stroke-linecap="round" d="M143.5,62c-3.7-0.7-7.3-1.8-10.7-3.5"/>
      <path fill="none" stroke="#231F20" stroke-width="0.37" stroke-linecap="round" d="M144.5,59.8c0,0-3.8,0.5-11.1-1.8"/>
      <path fill="none" stroke="#231F20" stroke-width="0.37" stroke-linecap="round" d="M131.4,60.3c0.1,0.7-0.5,1.4-1.3,1.5 c-0.1,0-0.1,0-0.2,0c-0.8-0.1-1.5-0.3-2.2-0.7"/>
      <path fill="none" stroke="#231F20" stroke-width="0.37" stroke-linecap="round" d="M127.6,59.9c0.1,0.4,0.3,1.1-0.1,1.3 c-0.5,0.2-1,0.1-1.5-0.1"/>
      <path fill="none" stroke="#231F20" stroke-width="0.37" stroke-linecap="round" d="M129.5,61.8c-0.6,0.6-1.4,0.8-2.2,0.5"/>
      <path fill="none" stroke="#231F20" stroke-width="0.37" stroke-linecap="round" d="M127.2,61.2c0.1,0.4,0.3,1.3-0.3,1.5 s-1.3-0.5-1.3-0.5"/>
      <path fill="none" stroke="#231F20" stroke-width="0.37" stroke-linecap="round" d="M126.9,62.8c-0.1,0.7,0,1.1-0.4,1.3 c-0.6,0.2-1.3,0.1-1.9-0.2"/>
      <path fill="none" stroke="#231F20" stroke-width="0.37" stroke-linecap="round" d="M133.4,65c-1-0.3-3.2-0.7-4.6-2.7"/>
      <path fill="none" stroke="#231F20" stroke-width="0.37" stroke-linecap="round" d="M131,66.1c-0.8-0.3-3.4-1.8-4-3.4"/>
      <path fill="none" stroke="#231F20" stroke-width="0.37" stroke-linecap="round" d="M129,67.2c-1.2-0.7-2.2-1.6-2.8-2.8"/>
      <path fill="none" stroke="#231F20" stroke-width="0.37" stroke-linecap="round" d="M144.8,56.8l-1,1c0,0-8.2-0.2-9.6-0.5"/>
      <path fill="none" stroke="#231F20" stroke-width="0.37" stroke-linecap="round" d="M148.3,53.3c-2.5,1.9-2.9-0.1-5.8,2.9 c-2.4,0.1-4.7,0.1-7.1-0.1"/>
      <path fill="none" stroke="#231F20" stroke-width="0.37" stroke-linecap="round" d="M147.5,51.3c-2,2.3-5.4,0.9-7.7,4.2h-3.9"/>
      <path fill="none" stroke="#231F20" stroke-width="0.37" stroke-linecap="round" d="M125.7,64.4c-0.1,0.6-0.2,1.1-0.7,1.2 s-1.6-0.8-1.6-0.8"/>
      <path fill="none" stroke="#231F20" stroke-width="0.37" stroke-linecap="round" d="M124.6,65.6c-0.1,0.5-0.3,1.1-1,1.1 c-0.6-0.1-1.1-0.4-1.5-0.8"/>
      <path fill="none" stroke="#231F20" stroke-width="0.37" stroke-linecap="round" d="M127.4,68.7c-1.2-0.6-2.2-1.5-2.9-2.5"/>
      <path fill="none" stroke="#231F20" stroke-width="0.37" stroke-linecap="round" d="M126.3,70.3c-1-0.4-3.1-1.9-3.5-2.8"/>
      <path fill="none" stroke="#231F20" stroke-width="0.37" stroke-linecap="round" d="M125.2,71.6c-0.6-0.4-2.6-1.6-3.2-2.9"/>
      <path fill="none" stroke="#231F20" stroke-width="0.37" stroke-linecap="round" d="M124.2,73c-1.4-0.7-2.6-1.9-3.3-3.4"/>
      <path fill="none" stroke="#231F20" stroke-width="0.37" stroke-linecap="round" d="M123.2,66.7c-0.1,0.7-0.2,1.2-0.7,1.4 s-1.5-0.8-1.5-1.2"/>
      <path fill="none" stroke="#231F20" stroke-width="0.37" stroke-linecap="round" d="M122.2,68.1c-0.1,0.4-0.3,1.1-1.1,1 s-1.3-1.5-1.3-1.5"/>
      <path fill="none" stroke="#231F20" stroke-width="0.37" stroke-linecap="round" d="M120.7,69.1c-0.1,0.5-0.5,0.8-1,0.9 c-0.7,0.1-1.2-1.6-1.2-1.6"/>
      <path fill="none" stroke="#231F20" stroke-width="0.37" stroke-linecap="round" d="M119.7,70c0.5,1.7,1.6,3.1,3.1,4"/>
      <path fill="none" stroke="#231F20" stroke-width="0.37" stroke-linecap="round" d="M121,74.9c0,0-2.6-1.7-2.3-4.3"/>
      <path fill="none" stroke="#231F20" stroke-width="0.37" stroke-linecap="round" d="M119.4,75.6c0,0-2.3-1.8-1.9-4.2"/>
      <path fill="none" stroke="#231F20" stroke-width="0.37" stroke-linecap="round" d="M119.2,70c-0.1,0.4-0.7,1.1-1.4,0.8 s-1-1.9-1-1.9"/>
      <path fill="none" stroke="#231F20" stroke-width="0.37" stroke-linecap="round" d="M117.6,70.8c-0.4,0.5-0.8,0.7-1.2,0.7 s-0.9-1-0.9-1.8"/>
      <path fill="none" stroke="#231F20" stroke-width="0.37" stroke-linecap="round" d="M115.9,71.7c0,0.6,0,1.2,0.1,1.8"/>
      <path fill="none" stroke="#231F20" stroke-width="0.37" stroke-linecap="round" d="M116.1,71.3c-0.3,0.5-0.8,0.7-1.3,0.6"/>
      <path fill="none" stroke="#231F20" stroke-width="0.37" stroke-linecap="round" d="M95.3,82.2c0.4,0.6,1.1,1.1,2,0.1 s5-4.6,5.6-5.3"/>
      <path fill="none" stroke="#231F20" stroke-width="0.37" stroke-linecap="round" d="M97.9,84c0,0,4-3.8,4.8-4.9"/>
      <path fill="none" stroke="#231F20" stroke-width="0.37" stroke-linecap="round" d="M99.3,85.3c1.4-0.8,2.5-2.1,3.2-3.5"/>
      <path fill="none" stroke="#231F20" stroke-width="0.37" stroke-linecap="round" d="M122.2,81.8c-0.3,0.6-1,0.8-1.6,0.5 c-0.2-0.1-0.3-0.2-0.4-0.4c-0.8-1-4.9-4.7-5.5-5.4"/>
      <path fill="none" stroke="#231F20" stroke-width="0.37" stroke-linecap="round" d="M119.6,83.6c0,0-3.9-3.9-4.7-5"/>
      <path fill="none" stroke="#231F20" stroke-width="0.37" stroke-linecap="round" d="M118.2,84.8c-1.3-0.9-2.4-2.1-3.1-3.6"/>
      <path fill="#231F20" stroke="#231F20" stroke-width="0.25" stroke-linecap="round" d="M115.5,85.2c-0.3-0.3-0.6-5.6-1.1-10.9 c0-1.5-0.3-3-0.7-4.4c-0.2-0.3-0.3-0.6-0.5-0.8c-0.2-0.4-0.4-0.9-0.5-0.9s-0.8,1.8-3.9,1.8s-3.9-1.8-3.9-1.8 c-0.2,0-0.3,0.6-0.5,0.9c-0.3,0.3-0.6,0.8-0.7,1.2c-0.3,1.3-0.5,2.7-0.5,4c-0.1,5.3-0.8,10.6-1.1,10.9L115.5,85.2z"/>
      <path fill="none" stroke="#231F20" stroke-width="0.25" d="M101.1,86c0.2,0.4,0.3,0.9,0.1,1.4"/>
      <path fill="none" stroke="#231F20" stroke-width="0.25" d="M115.7,85.6c-0.1,0.3-0.1,0.7,0,1"/>
      <path fill="#FEBD11" stroke="#231F20" stroke-width="0.12" d="M99.8,87.4c0.1,0.5,0.5,0.8,1.1,0.9c0,0-0.6-0.4-0.4-0.8 C100.7,87.3,100.1,87,99.8,87.4z"/>
      <path fill="#FEBD11" stroke="#231F20" stroke-width="0.12" d="M103.9,87.8c0.3,0.6,0.9,0.9,1.5,0.6c-0.4-0.1-0.7-0.4-0.8-0.8 C104.4,87.5,104.1,87.5,103.9,87.8z"/>
      <path fill="#FEBD11" stroke="#231F20" stroke-width="0.12" d="M106.9,87.3c0.4,0.3-0.1,0.8-0.6,1c0,0,1.4-0.1,1.5-0.6 s0.1-0.7-0.1-0.8C107.4,87,107.1,87.1,106.9,87.3z"/>
      <path fill="#FEBD11" stroke="#231F20" stroke-width="0.12" stroke-linecap="round" d="M109.8,87.4c0,0.5,0.3,0.9,0.8,1.1 c-0.2-0.2-0.1-0.5,0.1-0.8c0.3-0.4-0.3-0.6-0.3-0.6S109.9,87.1,109.8,87.4z"/>
      <path fill="#FEBD11" stroke="#231F20" stroke-width="0.12" stroke-linecap="round" d="M114,87c-0.2,0.6-0.7,1.1-1.3,1.3 c0,0,0.6-0.8,0.4-1.2S113.8,86.9,114,87z"/>
      <path fill="#FEBD11" stroke="#231F20" stroke-width="0.12" stroke-linecap="round" d="M117.4,86.6c-0.1,0.7-0.6,1.2-1.3,1.3 c0.3-0.3,0.5-0.7,0.5-1.2C116.4,86,117.4,86.3,117.4,86.6z"/>
      <path fill="#B0720D" stroke="#231F20" stroke-width="0.32" stroke-linecap="round" d="M113.6,76.7c-0.2,0.2-0.2,0.5-0.2,0.7 c0.4,0.5,0.8,0.9,1.4,1.2c0.1-0.5,0.1-1-0.1-1.5C114.4,76.9,114,76.7,113.6,76.7z"/>
      <path fill="#B0720D" stroke="#231F20" stroke-width="0.32" stroke-linecap="round" d="M104,76.8c0.2,0.2,0.2,0.5,0.2,0.7 c-0.4,0.5-0.8,0.9-1.4,1.2c-0.1-0.5-0.1-1,0.1-1.5C103.2,77,103.6,76.8,104,76.8z"/>
      <path fill="#B0720D" stroke="#231F20" stroke-width="0.32" stroke-linecap="round" d="M113.1,74.5c0.5-0.1,1,0.1,1.4,0.5 c0.3,0.6,0.3,1.2,0,1.8c-0.6-0.1-1.1-0.3-1.5-0.6C113,75.7,113.1,74.5,113.1,74.5z"/>
      <path fill="#B0720D" stroke="#231F20" stroke-width="0.32" stroke-linecap="round" d="M110.2,74.3c-0.2,0.5-0.2,1.1-0.1,1.7 l2.8,0.2c0.3-0.5,0.3-1.2,0-1.8"/>
      <path fill="#B0720D" stroke="#231F20" stroke-width="0.32" stroke-linecap="round" d="M114.5,74.8c-1.4-0.5-2.9-0.7-4.3-0.4 c-0.1-0.5-0.2-1.1-0.1-1.6c0.2-0.4,0.6-0.7,1.1-0.6c0.9,0,1.8,0,2.6,0.2C114.2,72.5,114.5,72.4,114.5,74.8z"/>
      <path fill="#B0720D" stroke="#231F20" stroke-width="0.32" stroke-linecap="round" d="M104.5,74.6c-0.5-0.1-1,0.1-1.4,0.5 c-0.3,0.6-0.3,1.2,0,1.8c0.6,0,1.1-0.3,1.5-0.6C104.6,75.8,104.5,74.6,104.5,74.6z"/>
      <path fill="#B0720D" stroke="#231F20" stroke-width="0.32" stroke-linecap="round" d="M107.4,74.4c0.2,0.5,0.2,1.1,0.1,1.7 l-2.8,0.2c-0.3-0.5-0.3-1.2,0-1.8"/>
      <path fill="#B0720D" stroke="#231F20" stroke-width="0.32" stroke-linecap="round" d="M103.1,74.9c1.4-0.5,2.9-0.7,4.3-0.4 c0.1-0.5,0.2-1.1,0.1-1.6c-0.2-0.4-0.6-0.7-1.1-0.6c-0.9,0-1.8,0-2.6,0.2C103.4,72.6,103.1,72.5,103.1,74.9z"/>
      <path fill="#B0720D" stroke="#231F20" stroke-width="0.32" stroke-linecap="round" d="M113,79.9c0.7,0.2,1.8,0.6,1.9,1.1 s0.6,2.1,0.2,2.5c-0.1,0.2-0.6-0.6-1.2-1.5C113.5,81.4,113.2,80.7,113,79.9z"/>
      <path fill="#B0720D" stroke="#231F20" stroke-width="0.32" stroke-linecap="round" d="M114.6,80.4c-0.6,0-1.1-0.3-1.5-0.7 c-0.2-0.7-0.1-1.4,0.2-2.1c0.5,0.2,1.1,1,1.3,1.2"/>
      <path fill="#B0720D" stroke="#231F20" stroke-width="0.32" stroke-linecap="round" d="M111.7,79.1c-0.8,0.9-1.6,1.9-2.2,3 c-0.3,0.4-0.4,1-0.1,1.5c0.3,0.3,2.4-2.3,2.6-3.3C111.9,79.9,111.9,79.5,111.7,79.1z"/>
      <path fill="#B0720D" stroke="#231F20" stroke-width="0.32" stroke-linecap="round" d="M111.2,76.2c-0.4,0-0.8-0.2-1.1,0.2 c-0.2,0.6-0.3,1.2-0.3,1.8c0.1,0.2,1.5,0,1.6-0.4C111.4,77.6,111.2,76.2,111.2,76.2z"/>
      <path fill="#B0720D" stroke="#231F20" stroke-width="0.32" stroke-linecap="round" d="M111.4,78.1c-0.5,0-1.1,0.1-1.5,0.4 c-0.4,0.9-0.6,1.8-0.6,2.8c0.2,0.6,1.2-1.3,1.8-1.9s0.5-0.5,0.5-0.6C111.6,78.5,111.5,78.3,111.4,78.1z"/>
      <path fill="#B0720D" stroke="#231F20" stroke-width="0.32" stroke-linecap="round" d="M104.6,80.1c-0.7,0.2-1.8,0.6-1.9,1.1 s-0.6,2.1-0.2,2.5c0.1,0.1,0.6-0.7,1.2-1.5C104,81.5,104.3,80.8,104.6,80.1z"/>
      <path fill="#B0720D" stroke="#231F20" stroke-width="0.32" stroke-linecap="round" d="M104.3,77.7c-0.5,0.2-1.1,1-1.3,1.2 s-0.8,1.7,0,1.7c0.6,0,1.1-0.3,1.5-0.8C104.7,79.1,104.6,78.3,104.3,77.7z"/>
      <path fill="#B0720D" stroke="#231F20" stroke-width="0.32" stroke-linecap="round" d="M105.1,82.2c0.6,1.1,1.2,2.1,2,3.1 c0,0-1.2-0.1-1.5,0.4c-0.2,0.3-1.2-0.7-2.1-0.4C104.1,84.3,104.7,83.3,105.1,82.2z"/>
      <path fill="#B0720D" stroke="#231F20" stroke-width="0.32" stroke-linecap="round" d="M106.4,76.3c0.4,0,0.8-0.2,1.1,0.2 c0.2,0.6,0.3,1.2,0.3,1.8c-0.1,0.2-1.5-0.1-1.6-0.4C106.3,77.3,106.3,76.8,106.4,76.3z"/>
      <path fill="#B0720D" stroke="#231F20" stroke-width="0.32" stroke-linecap="round" d="M101.7,85c0.1,0.4,0.5,0.6,0.9,0.6 c0.6-0.1,0.7-0.1,0.7-0.1c2.2-2.5,3.2-9.2,3.2-9.5s0-0.9-1.4,0.1s-0.7,1.3-0.4,2.7s-1.3,4.2-2.3,5.5L101.7,85z"/>
      <path fill="#B0720D" stroke="#231F20" stroke-width="0.32" stroke-linecap="round" d="M105.2,77.2c0,0.2-0.6,2.8-0.6,2.8"/>
      <path fill="#B0720D" stroke="#231F20" stroke-width="0.32" stroke-linecap="round" d="M105.9,79.2c0.8,0.9,1.6,1.9,2.2,3 c0.3,0.4,0.4,1,0.1,1.5c-0.3,0.3-2.4-2.3-2.6-3.3C105.7,80,105.7,79.6,105.9,79.2z"/>
      <path fill="#B0720D" stroke="#231F20" stroke-width="0.32" stroke-linecap="round" d="M106.2,78.2c0.5,0,1.1,0.2,1.5,0.4 c0.4,0.9,0.6,1.8,0.6,2.8c-0.2,0.6-1.2-1.3-1.8-1.9S106,79,106,78.9C106,78.7,106.1,78.4,106.2,78.2z"/>
      <path fill="#B0720D" stroke="#231F20" stroke-width="0.32" stroke-linecap="round" d="M105.2,82.1c0.5,1.1,1.1,2.2,1.9,3.2 c0.4-0.1,0.9,0,1.2,0.4c0.3-0.4,0.3-1,0-1.4c-0.4-0.7-2.6-2.9-2.6-3.6S105.2,82.1,105.2,82.1z"/>
      <path fill="#B0720D" stroke="#231F20" stroke-width="0.32" stroke-linecap="round" d="M112.5,82.1c-0.6,1.1-1.2,2.1-2,3.1 c0,0,1.2-0.1,1.5,0.4c0.2,0.3,1.2-0.7,2.1-0.4C113.5,84.2,112.9,83.1,112.5,82.1z"/>
      <path fill="#B0720D" stroke="#231F20" stroke-width="0.32" stroke-linecap="round" d="M112.4,82c-0.5,1.1-1.1,2.2-1.9,3.1 c-0.4-0.1-0.9,0.1-1.2,0.4c-0.2-0.4-0.2-1,0-1.4c0.4-0.7,2.6-2.9,2.6-3.6S112.4,82,112.4,82z"/>
      <path fill="#B0720D" stroke="#231F20" stroke-width="0.32" stroke-linecap="round" d="M115.9,84.7c-0.1,0.4-0.5,0.6-0.9,0.6 c-0.6-0.1-0.7-0.1-0.7-0.1c-2.2-2.5-3.2-9.2-3.2-9.5s0-0.9,1.4,0.1s0.8,1.3,0.4,2.7s1.3,4.2,2.3,5.5L115.9,84.7z"/>
      <path fill="#B0720D" stroke="#231F20" stroke-width="0.32" stroke-linecap="round" d="M112.4,77c0,0.2,0.6,2.7,0.6,2.7"/>
      <path fill="#231F20" stroke="#231F20" stroke-width="0.37" d="M109.3,85.6c-0.4,0.1-0.4,0.7-0.4,0.7c-0.1,0.2-0.2,0.5-0.3,0.8 c0-0.4-0.1-0.8-0.2-1.2c-0.2-0.3,0.1,0.4,0.2-0.7h0.6C109.1,85.1,109.4,85.5,109.3,85.6z"/>
      <path fill="#C69130" stroke="#231F20" stroke-width="0.37" d="M105.3,85.8c-0.5-0.3-2.1-1.1-3,0.1"/>
      <path fill="#C69130" stroke="#231F20" stroke-width="0.37" stroke-linecap="round" d="M112,86.1c0.1-0.5,0.4-0.9,1.8-0.9 c1.2,0,1.1,0.2,1.2,0.3"/>
      <path fill="#C69130" stroke="#231F20" stroke-width="0.37" stroke-linecap="round" d="M116.5,84.8c-0.3-0.1-1.8-0.4-1.4,1.4"/>
      <path fill="#C69130" stroke="#231F20" stroke-width="0.37" stroke-linecap="round" d="M100.7,85.2c0.3-0.1,1.3-0.7,1.6,0.7"/>
      <path fill="#FFFFFF" stroke="#231F20" stroke-width="0.37" stroke-linecap="round" stroke-linejoin="round" d="M104.2,57.4 c-0.5-1.3-0.1-2.1,1.1-2.2c0.5,0,1,0,1.6,0c0,0-0.1-0.6,0.4-0.7c1-0.2,2-0.2,2.9,0c0.2,0.1,0.3,0.2,0.5,0.3l0.1,0.1 c0,0,1.2,1.8,2.2,7l-0.8-0.2l0.3,1l-1-0.1l0.1,0.6l-0.4-0.1c-0.3,0.4-0.4,0.9-0.3,1.4c0,0-1.7-0.4-2-1.4l-0.4,0.9l-0.6-1.2 c0,0-0.8,0.4-0.8,1c0,0.3-0.6-0.9-0.5-1.3s-1.3,0.2-1.3,0.2c0.1-0.5,0.3-1,0.8-1.3c0.7-0.3,1.4-4,0.4-4.1 c-1.3-0.1-1.4-0.4-1.4-0.4l-0.1,0.1C105,56.9,104.6,56.7,104.2,57.4z"/>
      <path fill="#231F20" d="M108.1,55.6c0-0.1,0.8-0.4,1.1,0s-0.5,0.4-0.5,0.4v-0.3l-0.3,0.3C108.3,55.9,108.1,55.8,108.1,55.6z"/>
      <path fill="none" stroke="#231F20" stroke-width="0.17" stroke-linecap="round" stroke-linejoin="round" d="M107.5,55.1 c-0.1,0.1-0.1,0.2-0.1,0.3c0,0,0.1,0.1,1.2,0c0.3,0,0.7,0,1,0.2"/>
      <path fill="none" stroke="#231F20" stroke-width="0.25" d="M105.4,86c0.2,0.4,0.3,0.9,0.1,1.4"/>
      <path fill="none" stroke="#231F20" stroke-width="0.25" d="M114.9,85.1c0.2,0.4,0.3,0.9,0.1,1.4"/>
      <path fill="#FEBD11" stroke="#231F20" stroke-width="0.25" stroke-linecap="round" stroke-linejoin="round" d="M107.6,57.2 c-0.8,0-1.6-0.1-2.4-0.3l-0.2,0.1c0,0-0.5-0.2-0.8,0.5c-0.5-1.3-0.1-2.1,1.1-2.2c0.5,0,1,0,1.6,0c-0.4,0-0.5,0.5-0.1,0.9 C107.1,56.4,107.4,56.8,107.6,57.2z"/>
      <path fill="#FDB913" stroke="#231F20" stroke-width="0.12" stroke-linecap="round" stroke-linejoin="round" d="M105.1,56.8 c0,0,0.1,0.3,1.4,0.4c0.3,0,0.7,0,1-0.1l-1.2-0.2C105.8,57,105.1,56.8,105.1,56.8z"/>
    </g>
    <g id="Shield">
      <path fill="#FFFFFF" stroke="#231F20" stroke-width="0.62" stroke-linecap="round" stroke-linejoin="round" d="M108.4,171 c6-5.2,15.5-9.4,21.2-11.2c9.6-3.1,12.2-10.7,12.5-15.2c0.3-4.2-1-7.2-3.2-16.4s4.2-24.5,4.2-24.5l-9.2-8.5H82.9l-9.2,8.5 c0,0,6.5,15.2,4.2,24.4s-3.5,12.2-3.2,16.4c0.3,4.5,2.9,12.1,12.5,15.2C92.9,161.6,102.4,165.7,108.4,171z"/>
      <path fill="#6ACFF6" stroke="#231F20" stroke-width="0.5" d="M 108.2 142.1 C 111.8 142.1 112.4 142.6 112.4 143.6 C 112.4 144.6 111.4 144.1 111.4 144.9 C 111.4 146.5 114.7 146.4 114.7 146.4 C 118 146.4 118.1 144.9 118.1 144.9 C 118.1 143.8 117.3 144.5 117.3 143.3 C 117.3 142.1 119.8 142 120.5 142 C 121.2 142 124.1 142.1 124.1 143.3 C 124.1 144.5 123.3 143.7 123.3 144.9 C 123.3 146.5 127 146.4 127 146.4 C 128.1 146.4 130.5 146.4 130.5 145 C 130.5 143.6 129.7 144.5 129.7 143.4 C 129.7 142 132.5 142.1 133.2 142.1 C 133.9 142.1 136.7 141.9 136.7 143.4 C 136.7 144.5 135.8 143.7 135.8 144.9 C 135.8 146.3 139.2 146.3 139.2 146.3 C 140.2 138.9 135.6 131.4 135.6 124.2 C 135.7 117.4 137.1 110.7 139.5 104.4 L 132.3 97.4 L 84.1 97.4 L 76.9 104.4 C 79.4 110.7 80.7 117.4 80.8 124.2 C 80.8 132.5 76 139.3 77.5 146.1 C 77.5 146.1 80.6 146.2 80.6 144.9 C 80.6 143.7 79.7 144.5 79.7 143.4 C 79.7 141.9 82.4 142.1 83.2 142.1 C 84 142.1 86.7 142 86.7 143.4 C 86.7 144.5 85.9 143.7 85.9 145 C 85.9 146.3 88.3 146.4 89.4 146.4 C 89.4 146.4 93.1 146.5 93.1 144.9 C 93.1 143.7 92.3 144.5 92.3 143.3 C 92.3 142.1 95.1 142 95.9 142 C 96.7 142 99.1 142 99.1 143.3 C 99.1 144.6 98.3 143.7 98.3 144.9 C 98.3 144.9 98.5 146.4 101.7 146.4 C 101.7 146.4 105 146.5 105 144.9 C 105 144.1 104 144.4 104 143.6 C 104 142.8 104.7 142.1 108.2 142.1 Z"/>
      <g transform="matrix(1, 0, 0, 1, 0.099983252585, 0.801722049713)">
        <polygon fill="#FEBD11" stroke="#231F20" stroke-width="0.5" points="106.6 117.5 97 108.7 98.1 108.5 95.2 105.4 94.7 106.1 90.5 100.3 96.7 104.2 95.8 104.8 101.6 109.2 100.3 109.5 107.4 115.1"/>
        <polygon fill="#FEBD11" stroke="#231F20" stroke-width="0.5" points="102.2 119.1 90.8 112.9 91.7 112.4 88.2 110.1 87.9 110.9 82.4 106.2 89.4 108.6 88.7 109.3 95.3 112.3 94.2 112.9 102.4 116.6"/>
        <polygon fill="#FEBD11" stroke="#231F20" stroke-width="0.5" points="103.2 120.5 92.4 127.6 92.4 126.5 88.7 128.6 89.2 129.2 82.6 131.8 87.9 126.8 88.2 127.8 94 123.3 93.9 124.6 101.1 119.1"/>
        <polygon fill="#FEBD11" stroke="#231F20" stroke-width="0.5" points="107.9 121.9 99 131.4 98.8 130.3 95.7 133.2 96.3 133.7 90.5 137.8 94.5 131.7 95 132.5 99.6 126.8 99.8 128.1 105.5 121.1"/>
        <polygon fill="#FEBD11" stroke="#231F20" stroke-width="0.5" points="109.6 117.5 119.2 108.7 118.2 108.5 121 105.4 121.5 106.1 125.7 100.3 119.5 104.2 120.4 104.8 114.7 109.2 115.9 109.5 108.8 115.1"/>
        <polygon fill="#FEBD11" stroke="#231F20" stroke-width="0.5" points="114.1 119.1 125.5 112.9 124.5 112.4 128 110.1 128.3 110.9 133.8 106.2 126.8 108.6 127.6 109.3 120.9 112.3 122.1 112.9 113.8 116.6"/>
        <polygon fill="#FEBD11" stroke="#231F20" stroke-width="0.5" points="113 120.5 123.8 127.6 123.8 126.5 127.5 128.6 127 129.2 133.7 131.8 128.3 126.8 128 127.8 122.3 123.3 122.3 124.6 115.1 119.1"/>
        <polygon fill="#FEBD11" stroke="#231F20" stroke-width="0.5" points="108.4 121.9 117.2 131.4 117.4 130.3 120.5 133.2 119.9 133.7 125.8 137.8 121.8 131.7 121.2 132.5 116.7 126.8 116.4 128.1 110.7 121.1"/>
        <path fill="#FEBD11" stroke="#231F20" stroke-width="0.5" d="M 108.1 117.2 C 108.1 117.2 104.1 117.8 103.4 117.3 C 102.7 116.8 102.5 116.6 102.5 116.4 C 102.4 115.6 103.1 115.4 102.8 114.9 C 102.5 114.4 101.7 114 97.2 114 C 96.7 113.9 96.2 113.8 95.7 113.5 C 95.2 113.1 94.1 113.3 94.4 114.2 C 92.5 114.5 90.5 114.5 88.6 114.1 C 86.4 113.8 85.5 113.6 85.3 114 C 85.1 114.4 86.2 115.5 88.1 115.9 C 88.1 115.9 87.8 117.1 90.5 117.3 C 90.5 117.3 90.6 119 93.7 118.3 C 94.1 119.1 94.9 119.5 95.8 119.3 C 95.8 119.3 95.8 120.2 97.1 120.6 C 97.1 120.6 97.2 121.9 98.3 122 C 98.8 122.6 99.6 122.8 100.3 122.7 C 100.8 123 101.4 123.1 101.9 122.9 C 102.4 123.3 103 123.3 103.5 123 C 104 123.3 104.6 123.4 105.1 123.1 C 105.7 123.4 106.4 123.4 106.9 122.9 C 107.8 122 108.1 117.2 108.1 117.2 Z"/>
        <path fill="#FEBD11" stroke="#231F20" stroke-width="0.5" d="M 108.1 117.2 C 108.1 117.2 112.1 117.8 112.8 117.3 C 113.5 116.8 113.7 116.6 113.7 116.4 C 113.8 115.6 113.1 115.4 113.4 114.9 C 113.7 114.4 114.5 114 119 114 C 119.5 113.9 120 113.8 120.5 113.5 C 121 113.1 122.1 113.3 121.8 114.2 C 123.7 114.5 125.7 114.5 127.6 114.1 C 129.8 113.8 130.7 113.6 130.9 114 C 131.1 114.4 130 115.5 128.1 115.9 C 128.1 115.9 128.4 117.1 125.7 117.3 C 125.7 117.3 125.6 119 122.5 118.3 C 122.1 119.1 121.3 119.5 120.4 119.3 C 120.4 119.3 120.4 120.2 119.1 120.6 C 119.1 120.6 119 121.9 117.8 122 C 117.3 122.6 116.5 122.8 115.8 122.7 C 115.3 123 114.7 123.1 114.2 122.9 C 113.7 123.3 113.1 123.3 112.6 123 C 112.1 123.3 111.5 123.4 111 123.1 C 110.4 123.4 109.7 123.4 109.2 122.9 C 108.3 122 108.1 117.2 108.1 117.2 Z"/>
        <path fill="none" stroke="#231F20" stroke-width="0.37" stroke-linecap="round" d="M 94.7 114.2 C 94.9 114.9 95.5 115.3 99.3 115.3 C 99.7 115.3 100 115.6 100 116 C 100 116 100 116 100 116"/>
        <path fill="none" stroke="#231F20" stroke-width="0.37" stroke-linecap="round" d="M 95.9 115.1 C 95.9 116.3 97.1 116.8 99.1 116.1"/>
        <path fill="none" stroke="#231F20" stroke-width="0.37" stroke-linecap="round" d="M 100.4 117.2 C 100.4 117.2 99.2 118.6 98.3 118.3 C 97.9 118.2 97.7 117.8 97.7 117.5"/>
        <path fill="none" stroke="#231F20" stroke-width="0.37" stroke-linecap="round" d="M 99.8 116.6 C 99.8 116.6 98 117.9 97.3 117.3 C 96.6 116.7 97.2 116.5 97.2 116.5"/>
        <path fill="none" stroke="#231F20" stroke-width="0.37" stroke-linecap="round" d="M 98.8 118.3 C 99.1 118.8 99.2 119.2 99.9 119 C 100.4 118.8 100.9 118.5 101.2 118.1"/>
        <path fill="none" stroke="#231F20" stroke-width="0.37" d="M 94.9 114.8 C 92.8 115.6 90.5 116 88.3 115.9"/>
        <path fill="none" stroke="#231F20" stroke-width="0.37" d="M 95.8 115.1 C 95.8 115.1 95 116.5 90.6 117.3"/>
        <path fill="none" stroke="#231F20" stroke-width="0.37" d="M 96.4 116.2 C 96.4 116.2 96 117.1 94 118.2"/>
        <path fill="none" stroke="#231F20" stroke-width="0.37" d="M 94.1 118.2 C 95.7 118.1 97.1 117.3 97 116.5"/>
        <path fill="none" stroke="#231F20" stroke-width="0.37" d="M 96 119.2 C 96 119.2 97.5 118.9 97.5 117.6"/>
        <path fill="none" stroke="#231F20" stroke-width="0.37" d="M 97.2 120.5 C 97.2 120.5 98.4 120.5 98.7 118.5"/>
        <path fill="none" stroke="#231F20" stroke-width="0.37" stroke-linecap="round" d="M 99.7 119.2 C 99.9 119.8 100.6 120.2 101.2 120 C 101.9 119.8 102.3 118.9 102.3 118.9"/>
        <path fill="none" stroke="#231F20" stroke-width="0.37" d="M 98.5 121.9 C 99.3 121.5 99.9 120.7 100 119.7"/>
        <path fill="none" stroke="#231F20" stroke-width="0.37" d="M 100.2 122.6 C 101.1 122.1 101.5 121.2 101.3 120.2"/>
        <path fill="none" stroke="#231F20" stroke-width="0.37" stroke-linecap="round" d="M 101.2 119.9 C 101.6 120.7 102 120.8 102.5 120.8 C 103 120.8 103.6 119.3 103.6 119.3"/>
        <path fill="none" stroke="#231F20" stroke-width="0.37" stroke-linecap="round" d="M 102.9 120.6 C 103.2 120.9 103.7 121 104.2 120.9 C 104.7 120.6 105.1 120.1 105.1 119.5"/>
        <path fill="none" stroke="#231F20" stroke-width="0.37" d="M 104.1 120.9 C 104.2 121.6 104.1 122.2 103.8 122.8"/>
        <path fill="none" stroke="#231F20" stroke-width="0.37" d="M 102.7 120.8 C 102.8 121.5 102.6 122.1 102.2 122.7"/>
        <path fill="none" stroke="#231F20" stroke-width="0.37" d="M 105.2 122.9 C 105.5 122.3 105.7 121.5 105.6 120.8"/>
        <path fill="none" stroke="#231F20" stroke-width="0.37" stroke-linecap="round" d="M 104.6 120.7 C 105.2 121.1 106 121 106.4 120.4 C 106.4 120.4 106.4 120.3 106.5 120.3"/>
        <path fill="none" stroke="#231F20" stroke-width="0.37" stroke-linecap="round" d="M 121.5 114.2 C 121.3 114.9 120.7 115.3 116.9 115.3 C 116.5 115.3 116.2 115.6 116.2 116 C 116.2 116 116.2 116 116.2 116"/>
        <path fill="none" stroke="#231F20" stroke-width="0.37" stroke-linecap="round" d="M 120.2 115.1 C 120.2 116.3 119 116.8 117 116.1"/>
        <path fill="none" stroke="#231F20" stroke-width="0.37" stroke-linecap="round" d="M 115.7 117.2 C 115.7 117.2 116.9 118.6 117.8 118.3 C 118.2 118.2 118.4 117.8 118.4 117.5"/>
        <path fill="none" stroke="#231F20" stroke-width="0.37" stroke-linecap="round" d="M 116.3 116.6 C 116.3 116.6 118.1 117.9 118.8 117.3 C 119.5 116.7 118.9 116.5 118.9 116.5"/>
        <path fill="none" stroke="#231F20" stroke-width="0.37" stroke-linecap="round" d="M 117.3 118.3 C 117 118.8 116.9 119.2 116.2 119 C 115.7 118.8 115.2 118.5 114.9 118.1"/>
        <path fill="none" stroke="#231F20" stroke-width="0.37" d="M 121.2 114.8 C 123.3 115.6 125.5 116 127.8 115.9"/>
        <path fill="none" stroke="#231F20" stroke-width="0.37" d="M 120.3 115.1 C 120.3 115.1 121.1 116.5 125.5 117.3"/>
        <path fill="none" stroke="#231F20" stroke-width="0.37" d="M 119.7 116.2 C 119.7 116.2 120.1 117.1 122.1 118.2"/>
        <path fill="none" stroke="#231F20" stroke-width="0.37" d="M 122.1 118.2 C 120.5 118.1 119.1 117.3 119.2 116.5"/>
        <path fill="none" stroke="#231F20" stroke-width="0.37" d="M 120.1 119.2 C 120.1 119.2 118.6 118.9 118.6 117.6"/>
        <path fill="none" stroke="#231F20" stroke-width="0.37" d="M 118.9 120.5 C 118.9 120.5 117.6 120.5 117.4 118.5"/>
        <path fill="none" stroke="#231F20" stroke-width="0.37" stroke-linecap="round" d="M 116.4 119.2 C 116.2 119.8 115.5 120.2 114.9 120 C 114.2 119.8 113.8 118.9 113.8 118.9"/>
        <path fill="none" stroke="#231F20" stroke-width="0.37" d="M 117.6 121.9 C 116.8 121.5 116.2 120.7 116.1 119.7"/>
        <path fill="none" stroke="#231F20" stroke-width="0.37" d="M 115.9 122.6 C 115 122.1 114.6 121.2 114.8 120.2"/>
        <path fill="none" stroke="#231F20" stroke-width="0.37" stroke-linecap="round" d="M 114.9 119.9 C 114.5 120.7 114.1 120.8 113.6 120.8 C 113.1 120.8 112.5 119.3 112.5 119.3"/>
        <path fill="none" stroke="#231F20" stroke-width="0.37" stroke-linecap="round" d="M 113.2 120.6 C 112.9 120.9 112.4 121 111.9 120.9 C 111.4 120.6 111 120.1 111 119.5"/>
        <path fill="none" stroke="#231F20" stroke-width="0.37" d="M 112 120.9 C 111.9 121.6 112 122.2 112.3 122.8"/>
        <path fill="none" stroke="#231F20" stroke-width="0.37" d="M 113.4 120.8 C 113.3 121.5 113.5 122.1 113.9 122.7"/>
        <path fill="none" stroke="#231F20" stroke-width="0.37" d="M 110.9 122.9 C 110.6 122.3 110.4 121.5 110.5 120.8"/>
        <path fill="none" stroke="#231F20" stroke-width="0.37" stroke-linecap="round" d="M 111.5 120.7 C 110.9 121.1 110.1 121 109.7 120.4 C 109.7 120.4 109.7 120.3 109.6 120.3"/>
        <path fill="#FEBD11" stroke="#231F20" stroke-width="0.5" d="M 108.6 104.5 C 108.9 103.7 109 102.8 108.9 101.9 C 108.8 100.4 107.4 99.8 108.5 98.4 C 108.5 98.3 108.4 98.1 108.3 98.1 C 108.3 98.1 108.2 98.1 108.2 98.1 C 107.4 99 106.8 100.1 106.6 101.3 C 106.5 104.6 108.6 103.1 108.6 104.5 Z"/>
        <path fill="#FEBD11" stroke="#231F20" stroke-width="0.5" d="M 108.2 106.7 C 107.7 105.3 108.4 103.8 109.7 103.3 C 109.7 103.3 109.8 103.3 109.8 103.3 C 112.2 102.5 112.7 104.1 114 103.4 C 114.7 103.1 114.1 102.2 114.1 102.2 C 114.1 102.2 114.2 101.8 114.5 102.1 C 114.8 102.4 115.6 105.2 112.7 105.4 C 109.8 105.6 108.7 106 108.2 106.7 Z"/>
        <path fill="#FEBD11" stroke="#231F20" stroke-width="0.5" d="M 108.8 106.5 C 109.3 105.1 108.6 103.6 107.3 103.1 C 107.3 103.1 107.2 103.1 107.2 103.1 C 104.8 102.3 104.3 103.9 103 103.2 C 102.3 102.9 102.9 102 102.9 102 C 102.9 102 102.8 101.6 102.5 101.9 C 102.2 102.2 101.4 105 104.3 105.2 C 107.2 105.4 108.3 105.8 108.8 106.5 Z"/>
        <path fill="#FEBD11" stroke="#231F20" stroke-width="0.5" d="M 106.5 105.6 C 105.2 108.6 109.2 110.6 109.2 110.6 C 110.1 106.4 107.7 106.1 107 105.7 L 106.5 105.6 Z"/>
        <path fill="#FEBD11" stroke="#231F20" stroke-width="0.5" d="M 106.5 108.4 C 104.9 111.3 109.2 113.5 109.2 113.5 C 110.1 109.2 107.3 108.7 106.6 108.3 L 106.5 108.4 Z"/>
        <path fill="#FEBD11" stroke="#231F20" stroke-width="0.5" d="M 108.2 131.5 C 108.7 132.9 108 134.4 106.6 134.9 C 106.6 134.9 106.5 134.9 106.5 134.9 C 104.1 135.7 103.6 134.1 102.3 134.8 C 101.6 135.1 102.2 136 102.2 136 C 102.2 136 102.1 136.4 101.8 136.1 C 101.5 135.8 100.7 133 103.6 132.8 C 106.5 132.6 107.7 132.2 108.2 131.5 Z"/>
        <path fill="#FEBD11" stroke="#231F20" stroke-width="0.5" d="M 107.5 131.6 C 107 133 107.7 134.5 109.1 135 C 109.1 135 109.2 135 109.2 135 C 111.6 135.8 112.1 134.2 113.4 134.9 C 114.1 135.2 113.5 136.1 113.5 136.1 C 113.5 136.1 113.6 136.5 113.9 136.2 C 114.2 135.9 115 133.1 112.1 132.9 C 109.2 132.7 108 132.4 107.5 131.6 Z"/>
        <path fill="#FEBD11" stroke="#231F20" stroke-width="0.5" d="M 109.4 132.6 C 111.1 129.6 106.7 127.6 106.7 127.6 C 105.8 131.8 108.2 132.1 108.9 132.5 L 109.4 132.6 Z"/>
        <path fill="#FEBD11" stroke="#231F20" stroke-width="0.5" d="M 109.4 129.8 C 111.1 126.9 106.7 124.7 106.7 124.7 C 105.6 128.7 108.6 129.5 109.3 129.9 L 109.4 129.8 Z"/>
        <path fill="#FEBD11" stroke="#231F20" stroke-width="0.5" d="M 107.4 132 C 107 133.4 106.9 135 107.1 136.5 C 107.5 137.9 108.6 138.6 107.9 139.8 C 107.9 139.9 108 140.1 108.1 140.1 C 108.1 140.1 108.2 140.1 108.2 140.1 C 109 139.2 109.6 138.1 109.8 136.9 C 109.8 133.6 107.4 133.4 107.4 132 Z"/>
        <path fill="#FEBD11" stroke="#231F20" stroke-width="0.5" d="M 106.6 111.4 C 104.4 115.8 109.3 117.5 109.3 117.5 C 110.2 113 107.5 112 106.7 111.6 L 106.6 111.4 Z"/>
        <path fill="#FEBD11" stroke="#231F20" stroke-width="0.5" d="M 109.6 126.1 C 111.4 122.9 106.4 120.4 106.4 120.4 C 104.8 124.2 108.4 126.2 109.2 126.6 L 109.6 126.1 Z"/>
        <path fill="#FEBD11" stroke="#231F20" stroke-width="0.5" d="M 106.6 114.9 C 107.2 116.1 108.2 117 109.4 117.6 C 110 118.9 110.3 120.4 110.2 121.9 C 110.1 122.4 109.9 122.9 109.6 123.4 C 108.8 122.3 107.7 121.3 106.6 120.5 C 105.6 119.9 105.5 117.6 105.5 117.2 C 105.6 116.3 106 115.5 106.6 114.9 Z"/>
      </g>
    </g>
  </g>
</svg>